<ttFont>
          <CharString index="0">
            163 115 133 210 209 -115 129 -163 -164 -115 -128 -210 -210 115 -133 164 hvcurveto
            65 vmoveto
            -122 -80 109 169 168 80 105 122 121 80 -105 -168 -169 -80 -109 -121 hvcurveto
            return
          </CharString>
          <CharString index="1">
            -15 -12 59 190 45 69 45 195 59 hstem
            83 75 vstem
            443 120 rmoveto
            -48 -35 -37 -25 -51 hhcurveto
            -85 -55 72 118 -17 hvcurveto
            220 45 -225 hlineto
            0 13 -1 13 0 13 0 10 0 10 10 flex1
            265 45 -261 hlineto
            122 16 58 73 92 hhcurveto
            44 33 -24 -36 29 hvcurveto
            43 41 rlineto
            44 -33 -54 34 -60 hhcurveto
            -130 -91 -95 -159 -22 hvcurveto
            -64 -4 rlineto
            -41 60 vlineto
            -1 -10 0 -11 0 -11 0 -13 0 -12 -12 flex1
            -60 -4 rlineto
            -41 64 vlineto
            -157 22 88 -92 119 hhcurveto
            73 54 35 58 44 hvcurveto
            endchar
          </CharString>
          <CharString index="2">
            -224 657 rlineto
            -82 hlineto
            -225 -657 rlineto
            75 hlineto
            67 207 rlineto
            245 hlineto
            -226 59 rmoveto
            34 106 25 75 21 71 21 77 rlinecurve
            4 hlineto
            22 -77 22 -71 24 -75 34 -106 rcurveline
            endchar
          </CharString>
          <CharString index="3">
            rmoveto
            -1 143 rlineto
            -77 hlineto
            2 -146 1 -226 -109 -112 -208 -13 rlinecurve
            -18 154 133 59 50 78 3 146 rlinecurve
            1 58 rlineto
            -74 hlineto
            -1 -59 -2 -124 -31 -53 -87 -45 rlinecurve
            -34 283 rlineto
            -74 hlineto
            70 -565 306 2 152 136 -2 284 rlinecurve
            return
          </CharString>
          <CharString index="4">
            rmoveto
            -27 callgsubr
            -16 -89 callsubr
            17 -60 callgsubr
          </CharString>
          <CharString index="5">
            rmoveto
            135 85 81 103 99 -60 44 -76 32 hvcurveto
            -95 42 rlineto
            -50 22 -60 25 66 vvcurveto
            62 51 40 77 62 50 -25 -38 39 vhcurveto
            40 47 rlineto
            47 -44 -68 34 -79 hhcurveto
            -116 -86 -72 -99 -97 73 -45 60 -26 hvcurveto
            95 -42 rlineto
            63 -28 49 -22 -71 vvcurveto
            -68 -54 -46 -90 -70 -67 33 51 -47 vhcurveto
            -45 -51 rlineto
            -60 56 79 -38 93 hhcurveto
            return
          </CharString>
          <CharString index="6">
            rmoveto
            112 62 65 77 93 -80 28 -71 26 hvcurveto
            -55 21 -54 19 48 vvcurveto
            39 30 35 64 45 34 -19 -24 33 vhcurveto
            35 47 rlineto
            30 -37 -52 24 -58 hhcurveto
            -104 -61 -60 -76 -82 78 -32 69 -25 hvcurveto
            55 -20 58 -24 -52 vvcurveto
            -44 -33 -37 -67 -61 -43 25 34 -42 vhcurveto
            -37 -49 rlineto
            -38 45 66 -29 69 hhcurveto
            return
          </CharString>
          <CharString index="7">
            rmoveto
            88 71 32 44 42 hvcurveto
            272 -212 -62 144 -179 vlineto
            -26 -28 -48 -16 -50 hhcurveto
            -142 -81 108 169 169 87 105 137 67 44 -29 -35 33 hvcurveto
            41 49 rlineto
            39 -38 -58 41 -91 hhcurveto
            -174 -125 -130 -211 -212 121 -128 172 hvcurveto
            endchar
          </CharString>
          <CharString index="8">
            -15 -12 58 287 56 200 61 hstem
            49 69 264 69 vstem
            271 389 rmoveto
            -54 -58 -32 -51 -41 hvcurveto
            211 3 79 72 92 hhcurveto
            41 39 -19 -32 26 hvcurveto
            41 46 rlineto
            38 -35 -48 28 -66 hhcurveto
            -126 -115 -97 -260 -202 91 -103 126 101 84 83 120 131 -70 67 -110 hvcurveto
            -4 -343 rmoveto
            -87 -50 72 127 -10 hvcurveto
            64 45 53 24 41 hhcurveto
            84 39 -56 -86 -85 -50 -60 -65 hvcurveto
            endchar
          </CharString>
          <CharString index="9">
            590 rmoveto
            26 20 20 26 26 -20 21 -26 -27 -20 -21 -26 -26 20 -20 27 hvcurveto
            188 hmoveto
            27 20 20 26 26 -20 21 -27 -26 -20 -21 -26 -26 20 -20 26 hvcurveto
            return
          </CharString>
          <CharString index="10">
            -15 -12 61 298 57 171 63 hstem
            370 74 vstem
            232 -12 rmoveto
            109 103 78 138 138 -88 62 -109 -41 -30 -11 -17 -31 hvcurveto
            18 199 rlineto
            249 63 -313 hlineto
            -21 -305 40 -25 rlineto
            25 38 29 14 45 hhcurveto
            85 55 -54 -92 -92 -64 -60 -80 -78 -48 36 38 -38 hvcurveto
            -37 -48 rlineto
            -43 43 62 -44 102 hhcurveto
            endchar
          </CharString>
          <CharString index="11">
            237 -11 39 97 51 285 50 104 38 hstem
            50 43 106 60 391 44 vstem
            372 -11 rmoveto
            174 148 130 204 202 -148 128 -174 -174 -148 -127 -203 -204 148 -130 174 hvcurveto
            39 vmoveto
            -152 -127 118 177 176 127 116 152 151 127 -116 -176 -177 -127 -118 -151 hvcurveto
            7 97 rmoveto
            61 38 25 32 36 hvcurveto
            -27 39 rlineto
            -26 -30 -32 -19 -44 hhcurveto
            -73 -49 56 91 81 51 57 75 36 25 -15 -27 28 hvcurveto
            32 36 rlineto
            32 -32 -36 24 -56 hhcurveto
            -96 -87 -72 -116 -125 81 -73 99 hvcurveto
            endchar
          </CharString>
          <CharString index="12">
            -15 0 63 527 60 hstem
            344 72 vstem
            40 hmoveto
            407 63 -193 hlineto
            -33 -39 -3 -2 -35 hvcurveto
            157 165 112 120 122 vvcurveto
            112 -72 73 -117 -81 -58 -39 -57 -52 vhcurveto
            43 -42 rlineto
            44 37 48 34 54 hhcurveto
            86 40 -54 -74 -106 -108 -116 -196 -197 hvcurveto
            endchar
          </CharString>
          <CharString index="13">
            rmoveto
            28 32 9 9 27 hvcurveto
            -15 55 rlineto
            -6 -16 -23 -7 -17 hhcurveto
            -59 -18 36 60 hvcurveto
            281 133 60 -133 137 -61 vlineto
            -9 -137 -76 -5 rlineto
            -55 73 -279 vlineto
            -94 33 -64 101 vhcurveto
            return
          </CharString>
          <CharString index="14">
            72 355 hlineto
            52 51 37 26 51 hhcurveto
            68 28 -41 -93 hvcurveto
            -299 73 308 vlineto
            124 -46 65 -102 -66 -50 -37 return
          </CharString>
          <CharString index="15">
            30 25 24 34 35 -25 24 -30 -30 -25 -24 -35 -34 25 -24 30 hvcurveto
            return
          </CharString>
          <CharString index="16">
            383 63 -309 252 37 callgsubr
            -252 217 299 63 -373 hlineto
            return
          </CharString>
          <CharString index="17">
            -90 321 34 134 31 -19 -20 108 32 58 34 hstemhm
            22 38 77 39 72 41 69 37 hintmask 1011111110000000
            209 321 rmoveto
            102 84 79 116 117 -84 80 -102 -103 -84 -80 -117 -116 84 -79 103 hvcurveto
            34 vmoveto
            -84 -65 66 95 95 65 68 84 84 65 -68 -95 -95 -65 -66 -84 hvcurveto
            hintmask 1101111110000000
            -72 62 rmoveto
            39 72 42 hlineto
            hintmask 1011111110000000
            37 -72 rlineto
            43 hlineto
            -47 84 rlineto
            23 8 15 23 25 vvcurveto
            48 -36 16 -41 vhcurveto
            -75 hlineto
            hintmask 1101111110000000
            39 -101 rmoveto
            69 29 vlineto
            32 11 -14 -21 -23 -18 -11 -28 hvcurveto
            endchar
          </CharString>
          <CharString index="18">
            -17 -83 callsubr
            17 return
          </CharString>
          <CharString index="19">
            -15 -97 59 389 57 201 60 0 -20 hstemhm
            215 70.5 hintmask 11101000
            383 609 rmoveto
            26 17 -8 -7 15 hvcurveto
            hintmask 11011000
            16 57 rlineto
            hintmask 11101000
            9 -19 -27 9 -31 hhcurveto
            -103 -45 -73 -131 -14 hvcurveto
            -6 -57 rlineto
            -27 hlineto
            -69 -5 rlineto
            -52 90 vlineto
            -25 -230 -11 -100 -24 -58 -65 -1 rlinecurve
            -18 1 -17 3 -15 7 -15 -55 rcurveline
            -9 17 24 -6 30 hhcurveto
            108 40 81 123 13 hvcurveto
            28 244 rlineto
            135 57 -129 hlineto
            7 63 rlineto
            72 8 24 66 62 hhcurveto
            endchar
          </CharString>
          <CharString index="20">
            569 rmoveto
            117 116 19 callsubr
            117 -116 32 29 -115 141 25 callsubr
            return
          </CharString>
          <CharString index="21">
            -210 -152 42 365 46 365 42 hstemhm
            34 85 -7 65 hintmask 11101000
            227 -152 rmoveto
            42 42 -27 hlineto
            -56 -15 29 66 hvcurveto
            61 6 53 70 vvcurveto
            61 -15 34 -43 12 vhcurveto
            4 vlineto
            43 12 15 32 63 70 -6 53 61 vvcurveto
            66 15 29 56 vhcurveto
            27 42 -42 hlineto
            -78 -37 -29 -103 hvcurveto
            -73 8 -55 -69 vvcurveto
            hintmask 11110000
            -38 -18 -39 -68 -1 vhcurveto
            -46 vlineto
            hintmask 11101000
            68 -1 18 -39 -39 -68 -8 -55 -73 vvcurveto
            -103 37 -29 78 vhcurveto
            endchar
          </CharString>
          <CharString index="22">
            -29 -20 -19 -33 -30 24 -17 25 hvcurveto
            3 3 1 3 hhcurveto
            -56 -25 -34 -49 -34 vhcurveto
            22 -35 rlineto
            66 39 36 56 77 vvcurveto
            55 -22 30 -37 vhcurveto
            endchar
          </CharString>
          <CharString index="23">
            -15 207 52 153 52 186 -20 hstem
            35 427 vstem
            91 hmoveto
            49 hlineto
            25 207 rlineto
            137 hlineto
            -25 -207 rlineto
            49 hlineto
            25 207 rlineto
            91 52 -85 hlineto
            19 153 rlineto
            86 52 -80 hlineto
            23 186 rlineto
            -48 hlineto
            -24 -186 rlineto
            -137 hlineto
            23 186 rlineto
            -48 hlineto
            -24 -186 rlineto
            -92 -52 86 hlineto
            -19 -153 rlineto
            -87 -52 81 hlineto
            55 52 rmoveto
            19 153 rlineto
            137 hlineto
            -19 -153 rlineto
            endchar
          </CharString>
          <CharString index="24">
            12 -15 18 18 11 15 return
          </CharString>
          <CharString index="25">
            -97 hlineto
            -66 -20 23 32 28 14 17 19 15 hvcurveto
            -11 22 27 -6 25 hhcurveto
            98 77 66 103 43 -18 39 -25 23 hvcurveto
            103 57 -168 hlineto
            return
          </CharString>
          <CharString index="26">
            123 414 63 136 63 -50 50 hstemhm
            104 54 152 51 189 51 hintmask 10111100
            104 367 rmoveto
            54 259 102 50 -257 -50 101 hlineto
            206 -259 rmoveto
            51 143 hlineto
            -7 103 19 callsubr
            75 -199 rlineto
            44 hlineto
            hintmask 11011100
            75 199 19 callsubr
            -6 -103 rlineto
            -143 51 309 -67 vlineto
            -48 -119 -28 -80 rlineto
            -4 hlineto
            -28 80 rlineto
            hintmask 10111100
            -49 119 rlineto
            -67 hlineto
            endchar
          </CharString>
          <CharString index="27">
            -12 rmoveto
            51 hlineto
            363 681 rlineto
            -51 hlineto
            return
          </CharString>
          <CharString index="28">
            76 vstem
            92 hmoveto
            164 hlineto
            199 105 125 206 206 -105 120 -202 hvcurveto
            -161 hlineto
            74 -596 rmoveto
            535 81 vlineto
            160 77 -98 -167 -168 -77 -102 -160 hvcurveto
            return
          </CharString>
          <CharString index="29">
            85 hmoveto
            -93 callsubr
            return
          </CharString>
          <CharString index="30">
            -62 76 58.5 363 58.5 hstem
            193 59 vstem
            191 -80 rmoveto
            63 hlineto
            -4 158 140 -4 rlineto
            63 vlineto
            -140 -5 4 184 -4 184 140 -5 -65 callsubr
            5 -4 -184 4 -184 -140 5 rlineto
            -63 vlineto
            140 4 rlineto
            endchar
          </CharString>
          <CharString index="31">
            -15 575 63 hstem
            180 75 vstem
            180 hmoveto
            75 hlineto
            11 249 33 149 151 196 rrcurveto
            44 -406 -63 322 vlineto
            -126 -176 -49 -154 -11 -245 rrcurveto
            endchar
          </CharString>
          <CharString index="32">
            -88 -12 117 516 61 hstem
            140 110 49 72 vstem
            160 194 rmoveto
            65 hlineto
            -17 143 163 55 132 vvcurveto
            95 -64 63 -101 -71 -56 -35 -46 -41 vhcurveto
            42 -39 rlineto
            37 32 41 22 45 hhcurveto
            68 33 -46 -56 -110 -160 -57 21 -158 hvcurveto
            35 -206 rmoveto
            -4 callsubr
          </CharString>
          <CharString index="33">
            -172 389 46 110 38 98 45 hstem
            29 55 174 50 vstem
            185 389 rmoveto
            45 37 17 19 29 hvcurveto
            -22 36 rlineto
            -15 -22 -29 -11 -32 hhcurveto
            -63 -41 42 68 -3 hvcurveto
            220 hlineto
            3 16 1 6 13 vvcurveto
            60 -30 86 -101 -80 -68 -65 -103 -108 69 -61 87 vhcurveto
            -101 194 rmoveto
            62 7 35 36 51 hhcurveto
            61 20 -51 -47 hvcurveto
            endchar
          </CharString>
          <CharString index="34">
            707 rmoveto
            76 hlineto
            106 113 -32 24 -110 -94 rlineto
            -4 hlineto
            -110 94 -32 -24 rlineto
            return
          </CharString>
          <CharString index="35">
            -32 49 rlineto
            -28 -31 -41 -22 -46 hhcurveto
            -93 -63 77 116 115 67 79 91 40 31 -19 -26 29 hvcurveto
            38 48 rlineto
            31 -33 -44 27 -64 hhcurveto
            -123 -108 -94 -161 return
          </CharString>
          <CharString index="36">
            vstem
            92 hmoveto
            74 212 hlineto
            118 139 201 -351 rlineto
            83 hlineto
            -238 408 207 249 rlineto
            -84 hlineto
            -285 -339 rlineto
            -2 339 -74 hlineto
            return
          </CharString>
          <CharString index="37">
            -15 0 61 485 92 hstem
            227 73 vstem
            80 hmoveto
            353 61 -133 577 -56 hlineto
            -34 -20 -42 -15 -57 -10 rrcurveto
            -47 116 -485 -147 vlineto
            endchar
          </CharString>
          <CharString index="38">
            11 callsubr
            147 115 -42 49 -137 -127 rlineto
            return
          </CharString>
          <CharString index="39">
            18 11 14 -31 callgsubr
            return
          </CharString>
          <CharString index="40">
            77 vstem
            513 321 rmoveto
            -1 31 rlineto
            122 -4 -66 81 -120 hhcurveto
            -273 hlineto
            7 -61 61 -504 222 10 182 77 -8 244 rlinecurve
            -328 -260 rmoveto
            -52 433 rlineto
            183 hlineto
            79 41 -64 -83 hvcurveto
            -24 vlineto
            8 -196 -122 -53 -137 -13 rrcurveto
            return
          </CharString>
          <CharString index="41">
            449 63 -357 hlineto
            354 550 rlineto
            44 -414 -63 322 vlineto
            -354 -550 rlineto
            return
          </CharString>
          <CharString index="42">
            rlineto
            63 vlineto
            -140 -4 4 158 rlineto
            -63 hlineto
            4 -158 -140 4 rlineto
            -63 vlineto
            140 return
          </CharString>
          <CharString index="43">
            -34 callgsubr
            hvcurveto
            return
          </CharString>
          <CharString index="44">
            -199 222 57 hstem
            41 227 vstem
            41 222 rmoveto
            227 57 -227 hlineto
            endchar
          </CharString>
          <CharString index="45">
            -2 430 rmoveto
            -59 -50 47 73 74 49 45 60 60 48 -45 -74 -73 -50 -47 -58 hvcurveto
            return
          </CharString>
          <CharString index="46">
            -144 389 47 244 46 hstem
            30 58 186 58 vstem
            181 389 rmoveto
            82 69 63 106 107 -69 61 -82 -82 -69 -61 -107 -106 69 -63 82 hvcurveto
            47 vmoveto
            -57 -36 50 72 73 36 49 57 58 35 -49 -73 -72 -35 -50 -58 hvcurveto
            endchar
          </CharString>
          <CharString index="47">
            -225 -12 117 hstemhm
            86 110 -85 60 hintmask 10100000
            116 194 rmoveto
            50 hlineto
            10 388 2 88 rlineto
            -74 hlineto
            2 -88 rlineto
            hintmask 11000000
            35 -594 rmoveto
            -4 callsubr
          </CharString>
          <CharString index="48">
            rmoveto
            33 27 -119 158 119 157 -33 28 -137 -157 rlineto
            -56 vlineto
            return
          </CharString>
          <CharString index="49">
            77 vstem
            278 555 rmoveto
            -179 hlineto
            -32 -150 -17 -112 20 -57 99 -16 rlinecurve
            19 50 -55 14 -10 41 15 77 rlinecurve
            19 92 rlineto
            105 hlineto
            96 43 -65 -120 hvcurveto
            -509 77 507 vlineto
            162 -1 -71 86 -128 hhcurveto
            return
          </CharString>
          <CharString index="50">
            rmoveto
            23 callgsubr
            -28 callgsubr
            hvcurveto
            endchar
          </CharString>
          <CharString index="51">
            58 37 47 15 callgsubr
            -44 -5 -19 -25 -26 -49 -25 73 -76 hhcurveto
            return
          </CharString>
          <CharString index="52">
            573 rmoveto
            38 37 -140 164 -52 -48 rlineto
            return
          </CharString>
          <CharString index="53">
            -95 431 281 hstem
            179.5 53 vstem
            137 431 rmoveto
            70 85 68 -85 37 26 -56 93 95 39 -14 42 -100 -24 -9 105 rlineto
            -44 hlineto
            -9 -107 -100 26 -14 -42 95 -39 -56 -93 rlineto
            endchar
          </CharString>
          <CharString index="54">
            77 vstem
            45 hmoveto
            147 hlineto
            143 82 87 162 hvcurveto
            57 vlineto
            163 -82 86 -143 vhcurveto
            -147 -61 132 hlineto
            109 54 -65 -120 hvcurveto
            -63 vlineto
            -120 -54 -65 -109 vhcurveto
            -132 hlineto
            return
          </CharString>
          <CharString index="55">
            59 179 53 159 59 return
          </CharString>
          <CharString index="56">
            96 569 rmoveto
            -85 vlineto
            -66 -4 rlineto
            -55 66 -425 73 425 105 60 -105 83 vlineto
            65 23 33 47 18 19 -4 -8 19 vhcurveto
            16 56 rlineto
            9 -22 -28 7 -28 hhcurveto
            -92 -45 -59 -98 hvcurveto
            return
          </CharString>
          <CharString index="57">
            -47 -7 rlineto
            -72 6 42 -78 106 hhcurveto
            return
          </CharString>
          <CharString index="58">
            -12 65 551 65 return
          </CharString>
          <CharString index="59">
            68 -6 67 -4 66 vhcurveto
            4 hlineto
            72 -135 248 -426 rlineto
            76 657 -70 -356 hlineto
            -67 6 -72 4 -66 vhcurveto
            -4 hlineto
            -72 135 -248 426 rlineto
            -76 hlineto
            endchar
          </CharString>
          <CharString index="60">
            11 callsubr
            32 37 -137 127 -42 -49 rlineto
            return
          </CharString>
          <CharString index="61">
            32 207 59 329 62 return
          </CharString>
          <CharString index="62">
            68 26 59 73 4 hvcurveto
            -50 4 rlineto
            -48 -3 -14 -35 -31 hhcurveto
            return
          </CharString>
          <CharString index="63">
            92 hmoveto
            74 314 317 -314 36 callsubr
            -278 -317 278 -74 hlineto
            return
          </CharString>
          <CharString index="64">
            vstem
            213 hmoveto
            85 hlineto
            210 657 rlineto
            -75 hlineto
            -110 -362 -23 -78 -17 -63 -25 -77 -3 callsubr
            -25 77 -16 63 -23 78 -110 362 rcurveline
            -79 hlineto
            return
          </CharString>
          <CharString index="65">
            -56 -44 86 -78 hhcurveto
            -42 -44 -27 -62 -35 hvcurveto
            42 -28 rlineto
            43 23 25 18 29 hhcurveto
            return
          </CharString>
          <CharString index="66">
            -24 -17 -29 -32 -41 vvcurveto
            -38 19 -26 24 -15 vhcurveto
            -4 vlineto
            return
          </CharString>
          <CharString index="67">
            -7 -226 52 168 62 98 50 224 57 -42 54 return
          </CharString>
          <CharString index="68">
            rmoveto
            -58 241 -63 hlineto
            -167 -254 rlineto
            -29 177 -107 53 107 58 vlineto
            -227 42 rmoveto
            65 100 52 82 19 callsubr
            -5 -107 rlineto
            -75 vlineto
            endchar
          </CharString>
          <CharString index="69">
            rmoveto
            30 25 23 34 36 -25 24 -30 -30 -25 -24 -36 -34 25 -23 30 hvcurveto
            endchar
          </CharString>
          <CharString index="70">
            63 252 1 callgsubr
            return
          </CharString>
          <CharString index="71">
            34 vmoveto
            -33 -26 25 38 39 26 25 33 33 26 -25 -39 -38 -26 -25 -33 hvcurveto
            return
          </CharString>
          <CharString index="72">
            -28 callgsubr
            18 11 15 17 vhcurveto
            endchar
          </CharString>
          <CharString index="73">
            -29 -21 -19 -33 -30 24 -17 26 9 callgsubr
            65 39 36 56 77 vvcurveto
            55 -22 30 -36 vhcurveto
            return
          </CharString>
          <CharString index="74">
            vstem
            97 443 rmoveto
            46 hlineto
            14 162 2 86 rlineto
            -78 hlineto
            2 -86 rlineto
            return
          </CharString>
          <CharString index="75">
            -6 -12 59 389 61 return
          </CharString>
          <CharString index="76">
            rmoveto
            -16 callsubr
            -16 callgsubr
            hvcurveto
            46 vmoveto
            -11 callgsubr
            return
          </CharString>
          <CharString index="77">
            -210 -152 42 776 42 hstem
            147 55 vstem
            28 -152 rmoveto
            174 860 -174 -42 119 -776 -119 hlineto
            endchar
          </CharString>
          <CharString index="78">
            rmoveto
            147 94 79 88 79 -55 36 -112 hvcurveto
            return
          </CharString>
          <CharString index="79">
            65 43 -31 -91 hvcurveto
            return
          </CharString>
          <CharString index="80">
            vstem
            189 hmoveto
            84 hlineto
            174 485 25 callsubr
            -96 -283 -46 -142 rlineto
            -4 hlineto
            -46 142 -96 283 rlineto
            -75 hlineto
            return
          </CharString>
          <CharString index="81">
            522 64 17 callgsubr
            586 rmoveto
            -27 callgsubr
            4 callgsubr
            -8 callgsubr
            16 -18 hvcurveto
            endchar
          </CharString>
          <CharString index="82">
            33 -14 callgsubr
            return
          </CharString>
          <CharString index="83">
            77 vstem
            138 -23 callsubr
            84 61 -271 -61 112 hlineto
            -17 -27 -10 -40 -50 vvcurveto
            return
          </CharString>
          <CharString index="84">
            hmoveto
            77 377 hlineto
            36 5 47 20 34 vhcurveto
            return
          </CharString>
          <CharString index="85">
            77 vstem
            357 -200 rmoveto
            77 569 hlineto
            -45 callgsubr
            -211 -61 194 hlineto
            -28 callsubr
            return
          </CharString>
          <CharString index="86">
            -58 -37 -47 -73 -3 hvcurveto
            50 -3 rlineto
            43 4 20 25 26 hhcurveto
            return
          </CharString>
          <CharString index="87">
            265 64 165 61 hstem
            return
          </CharString>
          <CharString index="88">
            154 -49 callsubr
            return
          </CharString>
          <CharString index="89">
            77 vstem
            326 hmoveto
            77 369 hlineto
            -45 callgsubr
            -194 -61 177 hlineto
            -28 callsubr
            return
          </CharString>
          <CharString index="90">
            77 438 hlineto
            -46 callgsubr
            return
          </CharString>
          <CharString index="91">
            89 58 75 133 131 -58 75 -89 return
          </CharString>
          <CharString index="92">
            424 56 -424 hlineto
            return
          </CharString>
          <CharString index="93">
            77 vstem
            78 210 rmoveto
            76 16 1 63 rlineto
            149 vlineto
            -46 callgsubr
            return
          </CharString>
          <CharString index="94">
            74 -9.5 59 97 -5 callgsubr
            return
          </CharString>
          <CharString index="95">
            107 -12 65 221 62 268 65 return
          </CharString>
          <CharString index="96">
            117 hstem
            66 110 vstem
            121 return
          </CharString>
          <CharString index="97">
            hstemhm
            47 64 -45 70 -61 63 215 67 -4 72 return
          </CharString>
          <CharString index="98">
            hstem
            89 74 320 71 vstem
            return
          </CharString>
          <CharString index="99">
            -203 100 return
          </CharString>
          <CharString index="100">
            rmoveto
            33 27 -120 158 120 157 -33 28 -137 -157 rlineto
            -56 vlineto
            return
          </CharString>
          <CharString index="101">
            43 44 27 60 34 hvcurveto
            -42 30 rlineto
            -43 -22 return
          </CharString>
          <CharString index="102">
            -223 310 vlineto
            -193 -494 rlineto
            77 hlineto
            193 490 rlineto
            65 vlineto
            return
          </CharString>
          <CharString index="103">
            -92 callsubr
            endchar
          </CharString>
          <CharString index="104">
            rlinecurve
            -4 hlineto
            return
          </CharString>
          <CharString index="105">
            rmoveto
            98 164 -52 27 -87 -172 rlineto
            return
          </CharString>
          <CharString index="106">
            0 61 433 61 hstem
            return
          </CharString>
          <CharString index="107">
            61 387 61 return
          </CharString>
          <CharString index="108">
            62 385 62 return
          </CharString>
          <CharString index="109">
            hstem
            53 72 230 72 vstem
            return
          </CharString>
          <CharString index="110">
            -250 20 callgsubr
            return
          </CharString>
          <CharString index="111">
            99 hstem
            135 50 return
          </CharString>
          <CharString index="112">
            116 -10 rmoveto
            226 11 177 94 -9 244 -1 28 rcurveline
            return
          </CharString>
          <CharString index="113">
            277.5 28 callgsubr
            return
          </CharString>
          <CharString index="114">
            494 61 hstem
            return
          </CharString>
          <CharString index="115">
            59 259 57 223 59 hstemhm
            92 74 267 73 -35 73 return
          </CharString>
          <CharString index="116">
            669 rmoveto
            -363 -681 rlineto
            51 hlineto
            363 681 rlineto
            return
          </CharString>
          <CharString index="117">
            -3 hlineto
            -6 72 rlineto
            -60 hlineto
            endchar
          </CharString>
          <CharString index="118">
            699 rmoveto
            return
          </CharString>
          <CharString index="119">
            154 -15 callgsubr
            403 77 vstem
            return
          </CharString>
          <CharString index="120">
            -44 -30 -27 -40 -42 vvcurveto
            return
          </CharString>
          <CharString index="121">
            45 -12 1 callsubr
            return
          </CharString>
          <CharString index="122">
            55 -47 -20 85 55 hstemhm
            return
          </CharString>
          <CharString index="123">
            hstem
            4 531 vstem
            return
          </CharString>
          <CharString index="124">
            14 callsubr
            hstem
            49 75 271 72 vstem
            return
          </CharString>
          <CharString index="125">
            hstem
            85 72 return
          </CharString>
          <CharString index="126">
            rlineto
            4 hlineto
            return
          </CharString>
          <CharString index="127">
            -15 196 56 156 56 hstem
            34 424 vstem
            return
          </CharString>
          <CharString index="128">
            102 5 57 28 56 vvcurveto
            41 -27 19 -45 11 vhcurveto
            return
          </CharString>
          <CharString index="129">
            hstem
            47 76 295 75 vstem
            return
          </CharString>
          <CharString index="130">
            858 36 hstem
            return
          </CharString>
          <CharString index="131">
            128 -10 68 return
          </CharString>
          <CharString index="132">
            rlineto
            -72 hlineto
            return
          </CharString>
          <CharString index="133">
            119 67 -39 -85 -93 -69 -42 -117 hvcurveto
            return
          </CharString>
          <CharString index="134">
            98 -11.25 62.2 return
          </CharString>
          <CharString index="135">
            hvcurveto
            4 vlineto
            hintmask 11111000
            return
          </CharString>
          <CharString index="136">
            -18 -27 callgsubr
            -16 return
          </CharString>
          <CharString index="137">
            60 365 60 hstem
            return
          </CharString>
          <CharString index="138">
            rmoveto
            102 141 -50 29 -92 -151 rlineto
            return
          </CharString>
          <CharString index="139">
            -37 callsubr
            11 callgsubr
            return
          </CharString>
          <CharString index="140">
            -91 -12 57 394 58 return
          </CharString>
          <CharString index="141">
            91 112 91 return
          </CharString>
          <CharString index="142">
            20 callgsubr
            hstem
            return
          </CharString>
          <CharString index="143">
            74 657 -74 return
          </CharString>
          <CharString index="144">
            91 19 74 19 91 hintmask 00000000
            hintmask 11111000
            return
          </CharString>
          <CharString index="145">
            hlineto
            63 64 -25 26 -105 -109 rlineto
            return
          </CharString>
          <CharString index="146">
            -224 38 122 67 -46 -21 hstemhm
            return
          </CharString>
          <CharString index="147">
            137 0 96 465 96 0 -20 return
          </CharString>
          <CharString index="148">
            hlineto
            144 96 64 136 142 return
          </CharString>
        <CharString name=".notdef">
          141 0 54 551 55 hstem
          90 60 346 62 vstem
          90 hmoveto
          468 660 -468 hlineto
          232 -277 rmoveto
          -51 94 -71 128 rlineto
          247 hlineto
          -71 -128 -50 -94 rlineto
          -176 -280 rmoveto
          476 vlineto
          133 -239 rlineto
          213 -237 rmoveto
          -131 237 131 239 rlineto
          -309 -525 rmoveto
          79 140 56 103 19 callsubr
          54 -103 78 -140 rlineto
          endchar
        </CharString>
        <CharString name="A">
          -46 callsubr
          16 callsubr
          457 hmoveto
          78 hlineto
          -105 callsubr
        </CharString>
        <CharString name="AE">
          312 0 63 135 59 58 1 callgsubr
          -59 59 hstemhm
          404 74 hintmask 11110100
          478 63 rmoveto
          41 callgsubr
          283 63 -400 vlineto
          -349 -657 rlineto
          77 hlineto
          104 198 rlineto
          211 -198 367 63 hlineto
          -546 194 rmoveto
          63 122 rlineto
          hintmask 11101100
          38 73 37 74 37 72 rrcurveto
          4 -341 hlineto
          endchar
        </CharString>
        <CharString name="Aacute">
          -46 callsubr
          16 callsubr
          397 814 rmoveto
          -42 49 -137 -127 32 -37 rlineto
          207 -699 rmoveto
          78 hlineto
          -105 callsubr
        </CharString>
        <CharString name="Abreve">
          -46 callsubr
          50 47 hstem
          125 45 196 45 vstem
          268 -64 callgsubr
          189 -707 rmoveto
          78 hlineto
          -105 callsubr
        </CharString>
        <CharString name="Acircumflex">
          -46 callsubr
          68 -20 90 43 16 callsubr
          266 795 rmoveto
          4 hlineto
          110 -94 32 24 -106 113 rlineto
          -76 hlineto
          -106 -113 32 -24 rlineto
          301 -701 rmoveto
          78 hlineto
          -105 callsubr
        </CharString>
        <CharString name="Adieresis">
          -46 callsubr
          61 91 hstem
          121 34 callsubr
          vstem
          167 -101 callgsubr
          88 -718 rmoveto
          78 hlineto
          -105 callsubr
        </CharString>
        <CharString name="Agrave">
          -46 callsubr
          16 callsubr
          318 736 rmoveto
          -137 127 -42 -49 147 -115 rlineto
          171 -699 rmoveto
          78 hlineto
          -105 callsubr
        </CharString>
        <CharString name="Amacron">
          -46 callsubr
          80 52 16 callsubr
          399 789 rmoveto
          -262 -52 262 hlineto
          58 -737 rmoveto
          78 hlineto
          -105 callsubr
        </CharString>
        <CharString name="Aring">
          -46 callsubr
          42 34 111 34 hstem
          173 42 105 43 vstem
          268 11 callsubr
          53 42 36 53 54 -42 36 -53 -54 -41 -36 -54 -53 41 -36 54 hvcurveto
          145 vmoveto
          28 24 -21 -35 -36 -24 -19 -28 -29 -24 19 36 35 24 21 29 hvcurveto
          189 -844 rmoveto
          78 hlineto
          -105 callsubr
        </CharString>
        <CharString name="Atilde">
          -46 callsubr
          54 15 callsubr
          94 50 248 50 hintmask 00000000
          hintmask 11101110
          194 784 rmoveto
          30 callgsubr
          hintmask 11100110
          -56 callsubr
          hintmask 11011110
          -58 -37 -47 -73 -3 hvcurveto
          50 -3 rlineto
          hintmask 11101110
          43 4 20 25 26 hhcurveto
          263 -784 rmoveto
          78 hlineto
          hintmask 11100110
          -105 callsubr
        </CharString>
        <CharString name="B">
          78 0 8 callsubr
          hintmask 11110100
          -4 callgsubr
          hintmask 11111000
          -48 callgsubr
          hintmask 11110100
          26 callsubr
          endchar
        </CharString>
        <CharString name="Bethb">
          33 endchar
        </CharString>
        <CharString name="C">
          62 -15 callgsubr
          vstem
          336 -12 -89 callgsubr
        </CharString>
        <CharString name="Ccaron">
          62 -49 callsubr
          38 43 hstem
          52 77 vstem
          289 -73 callsubr
          153 -832 -89 callgsubr
        </CharString>
        <CharString name="Ccedilla">
          62 -15 callgsubr
          vstem
          336 -12 -89 callgsubr
        </CharString>
        <CharString name="D">
          106 0 61 535 61 11 callgsubr
          318 -79 callsubr
          endchar
        </CharString>
        <CharString name="E">
          17 0 32 callsubr
          vstem
          92 hmoveto
          -91 callsubr
          endchar
        </CharString>
        <CharString name="Eacute">
          17 0 32 callsubr
          vstem
          266 -69 callsubr
          -142 -736 rmoveto
          -91 callsubr
          endchar
        </CharString>
        <CharString name="Ebreve">
          17 -49 callgsubr
          50 47 hstemhm
          92 74 -25 45 196 45 hintmask 00000000
          hintmask 11110110
          284 -64 callgsubr
          hintmask 11111000
          -192 -707 rmoveto
          -91 callsubr
          endchar
        </CharString>
        <CharString name="Ecircumflex">
          17 -49 callgsubr
          68 -20 90 43 11 callgsubr
          vstem
          172 -78 callgsubr
          -48 -725 rmoveto
          -91 callsubr
          endchar
        </CharString>
        <CharString name="Edieresis">
          17 -49 callgsubr
          61 91 hstemhm
          92 74 -29 34 callsubr
          hintmask 00000000
          hintmask 11110110
          183 -101 callgsubr
          hintmask 11101000
          -293 -718 rmoveto
          -91 callsubr
          endchar
        </CharString>
        <CharString name="Egrave">
          17 0 32 callsubr
          vstem
          302 -47 callsubr
          -63 -814 rmoveto
          -91 callsubr
          endchar
        </CharString>
        <CharString name="Emacron">
          17 -49 callgsubr
          80 52 11 callgsubr
          vstem
          153 -37 callgsubr
          -61 -789 rmoveto
          -91 callsubr
          endchar
        </CharString>
        <CharString name="Eogonek">
          17 -210 53 157 32 callsubr
          156 58 vstem
          414 -210 rmoveto
          26 32 12 15 18 hvcurveto
          -21 40 rlineto
          -9 -12 -13 -5 -16 hhcurveto
          -24 -24 15 33 54 47 48 45 7 hvcurveto
          3 63 -309 252 37 callgsubr
          -252 217 299 63 -373 -657 304 hlineto
          -38 -24 -36 -47 -53 vvcurveto
          -57 41 -29 51 vhcurveto
          endchar
        </CharString>
        <CharString name="Eth">
          127 0 61 262 44 229 61 hstem
          113 74 318 77 vstem
          275 657 rmoveto
          -162 -290 hlineto
          -79 -3 rlineto
          -41 79 -323 165 vlineto
          199 105 125 206 206 -105 120 -202 hvcurveto
          -6 -596 rmoveto
          -82 262 153 44 -153 229 82 hlineto
          160 76 -98 -167 -168 -76 -102 -160 hvcurveto
          endchar
        </CharString>
        <CharString name="Euro">
          -106 callsubr
        </CharString>
        <CharString name="Euro.001">
          -106 callsubr
        </CharString>
        <CharString name="Euro.heb">
          33 endchar
        </CharString>
        <CharString name="Euro.heb.001">
          33 endchar
        </CharString>
        <CharString name="Euro.lat">
          -106 callsubr
        </CharString>
        <CharString name="Euro.lat.001">
          -106 callsubr
        </CharString>
        <CharString name="F">
          -17 300 62 232 63 11 callgsubr
          vstem
          92 hmoveto
          74 300 253 62 -253 232 299 63 -373 hlineto
          endchar
        </CharString>
        <CharString name="G">
          -12 callsubr
          22 callgsubr
          345 -12 -100 callsubr
        </CharString>
        <CharString name="Gcaron">
          -12 callsubr
          38 43 22 callgsubr
          313 -73 callsubr
          138 -832 -100 callsubr
        </CharString>
        <CharString name="Gdotaccent">
          -12 callsubr
          47 100 hstem
          52 77 169 106 74 68 vstem
          351 716 rmoveto
          2 callgsubr
          -6 -728 -100 callsubr
        </CharString>
        <CharString name="H">
          141 314 65 278 -20 11 callgsubr
          317 74 vstem
          -44 callsubr
          endchar
        </CharString>
        <CharString name="Hbar">
          176 314 65 113 44 -44 165 hstemhm
          112 74 317 74 hintmask 11011000
          650 536 rmoveto
          -73 hlineto
          31 callgsubr
          -317 vlineto
          31 callgsubr
          vlineto
          -79 -5 rlineto
          -39 79 -492 74 314 317 -314 74 492 73 vlineto
          -147 -113 rmoveto
          -317 113 317 hlineto
          endchar
        </CharString>
        <CharString name="I">
          3 callsubr
          11 callgsubr
          vstem
          92 hmoveto
          -3 callgsubr
        </CharString>
        <CharString name="Iacute">
          3 callsubr
          11 callgsubr
          vstem
          111 -69 callsubr
          13 -736 -1 callgsubr
        </CharString>
        <CharString name="Icircumflex">
          3 callsubr
          88 -20 90 43 11 callgsubr
          vstem
          17 -78 callgsubr
          107 -725 -1 callgsubr
        </CharString>
        <CharString name="Idieresis">
          3 callsubr
          81 91 hstemhm
          -18 37 callsubr
          28 -101 callgsubr
          hintmask 11010000
          -138 -718 -1 callgsubr
        </CharString>
        <CharString name="Igrave">
          3 callsubr
          11 callgsubr
          vstem
          147 -47 callsubr
          92 -814 -1 callgsubr
        </CharString>
        <CharString name="Imacron">
          3 callsubr
          100 52 11 callgsubr
          vstem
          -2 -37 callgsubr
          94 -789 -1 callgsubr
        </CharString>
        <CharString name="J">
          -32 -12 65 604 -20 hstem
          312 74 vstem
          210 -12 rmoveto
          126 50 90 112 hvcurveto
          467 -74 -460 vlineto
          -102 -36 -42 -72 -49 -38 22 53 -30 vhcurveto
          -53 -37 rlineto
          -67 37 58 -36 81 hhcurveto
          endchar
        </CharString>
        <CharString name="K">
          66 35 callsubr
          92 74 -71 callsubr
          endchar
        </CharString>
        <CharString name="L">
          -26 0 63 594 -20 11 callgsubr
          vstem
          92 hmoveto
          364 63 -290 594 -74 hlineto
          endchar
        </CharString>
        <CharString name="Lslash">
          -24 0 63 594 -20 hstem
          97 74 vstem
          171 63 rmoveto
          215 vlineto
          205 108 -27 48 -178 -95 rlineto
          318 -74 -352 vlineto
          -100 -54 27 -47 73 41 rlineto
          -245 365 63 vlineto
          endchar
        </CharString>
        <CharString name="M">
          214 68 90 412 87 hstem
          92 67 402 69 vstem
          92 hmoveto
          67 380 hlineto
          56 -6 76 -4 58 vhcurveto
          4 hlineto
          52 -149 129 -353 rlineto
          52 hlineto
          128 353 52 149 19 callsubr
          -4 -58 -5 -76 -56 vvcurveto
          -380 69 657 -92 vlineto
          -127 -360 -17 -46 -14 -47 -16 -46 -3 callsubr
          -48 139 -129 360 rlineto
          -91 hlineto
          endchar
        </CharString>
        <CharString name="N">
          40 callsubr
          hstemhm
          92 70 320 70 hintmask 10111000
          92 hmoveto
          70 360 hlineto
          hintmask 11011000
          -48 callsubr
        </CharString>
        <CharString name="Ntilde">
          40 callsubr
          74 15 callsubr
          92 70 -10 50 248 50 -18 70 hintmask 0000000000000000
          hintmask 1011000110000000
          402 711 rmoveto
          -56 callsubr
          hintmask 1010110101000000
          -21 callsubr
          hintmask 1011000110000000
          30 callgsubr
          hintmask 1101001001000000
          -310 -711 rmoveto
          70 360 hlineto
          -48 callsubr
        </CharString>
        <CharString name="O">
          12 callsubr
          331 -12 rmoveto
          -107 callsubr
          endchar
        </CharString>
        <CharString name="OE">
          337 -49 callgsubr
          hstem
          52 77 300 74 vstem
          368 hmoveto
          427 63 -292 41 callgsubr
          282 63 -414 hlineto
          -204 -115 -120 -206 -206 115 -125 201 hvcurveto
          9 61 rmoveto
          -165 -83 102 168 168 83 97 165 hvcurveto
          52 -535 hlineto
          endchar
        </CharString>
        <CharString name="Oacute">
          12 callsubr
          313 -69 callsubr
          50 -748 rmoveto
          -107 callsubr
          endchar
        </CharString>
        <CharString name="Obreve">
          -19 callsubr
          38 47 hstem
          52 77 59 45 196 45 58 77 vstem
          331 -64 callgsubr
          -719 vmoveto
          -107 callsubr
          endchar
        </CharString>
        <CharString name="Ocircumflex">
          -19 callsubr
          56 -20 90 43 hstem
          52 77 403 77 vstem
          219 -78 callgsubr
          144 -737 rmoveto
          -107 callsubr
          endchar
        </CharString>
        <CharString name="Odieresis">
          -19 callsubr
          49 91 hstem
          52 77 55 34 callsubr
          54 77 vstem
          230 -101 callgsubr
          -101 -730 rmoveto
          -107 callsubr
          endchar
        </CharString>
        <CharString name="Ograve">
          12 callsubr
          349 -47 callsubr
          129 -826 rmoveto
          -107 callsubr
          endchar
        </CharString>
        <CharString name="Omacron">
          -19 callsubr
          68 52 hstem
          52 77 403 77 vstem
          200 -37 callgsubr
          131 -801 rmoveto
          -107 callsubr
          endchar
        </CharString>
        <CharString name="Oslash">
          -19 callsubr
          hstem
          55 77 403 77 vstem
          613 653 rmoveto
          -42 32 -62 -81 rlineto
          42 -46 -61 23 -69 hhcurveto
          -163 -115 -128 -210 -97 24 -80 42 -58 hvcurveto
          -70 -92 42 -32 64 83 rlineto
          -43 46 61 -24 69 hhcurveto
          164 115 133 210 96 -24 80 -43 57 hvcurveto
          -413 -233 rmoveto
          168 80 105 121 53 46 -20 -37 34 vhcurveto
          -297 -389 rlineto
          -24 46 -13 58 69 vvcurveto
          403 hmoveto
          -169 -80 -109 -122 -53 -46 21 38 -34 vhcurveto
          298 390 rlineto
          24 -45 13 -58 -68 vvcurveto
          endchar
        </CharString>
        <CharString name="Otilde">
          -19 callsubr
          42 15 callsubr
          52 77 28 50 248 50 27 77 hintmask 0000000000000000
          hintmask 1110011110000000
          407 711 rmoveto
          -56 callsubr
          hintmask 1101111010000000
          -21 callsubr
          hintmask 1110011110000000
          30 callgsubr
          hintmask 1110010010000000
          -76 -723 rmoveto
          -107 callsubr
          endchar
        </CharString>
        <CharString name="P">
          55 266 61 270 60 11 callgsubr
          278 74 vstem
          92 hmoveto
          74 266 112 41 callsubr
          -97 49 -147 hvcurveto
          -182 hlineto
          74 -330 rmoveto
          270 97 vlineto
          120 61 -32 -99 -97 -57 -42 -120 hvcurveto
          endchar
        </CharString>
        <CharString name="Q">
          154 -163 63 91 59 554 65 hstem
          52 77 403 77 vstem
          605 -90 rmoveto
          -5 -17 -22 -5 -29 hhcurveto
          -74 -59 31 60 -30 hvcurveto
          140 22 95 127 191 vvcurveto
          209 -115 129 -163 -164 -115 -128 -210 -194 98 -128 144 -19 vhcurveto
          -88 36 81 -65 119 hhcurveto
          37 34 7 7 19 hvcurveto
          -491 480 rmoveto
          168 80 105 122 121 80 -105 -168 -172 -80 -109 -121 -122 -80 109 172 vhcurveto
          endchar
        </CharString>
        <CharString name="R">
          56 284 60 253 60 11 callgsubr
          279 74 vstem
          537 hmoveto
          -171 291 rlineto
          93 20 60 61 103 vvcurveto
          134 -93 48 -133 vhcurveto
          -201 -657 74 284 124 hlineto
          163 -284 rlineto
          -287 597 rmoveto
          115 hlineto
          106 58 -32 -90 -88 -58 -43 -106 hvcurveto
          -115 hlineto
          endchar
        </CharString>
        <CharString name="S">
          23 16 callgsubr
          76 74 266 75 vstem
          271 -12 -102 callsubr
          endchar
        </CharString>
        <CharString name="Sacute">
          23 16 callgsubr
          76 74 266 75 vstem
          258 -69 callsubr
          45 -748 -102 callsubr
          endchar
        </CharString>
        <CharString name="Scaron">
          23 -49 callsubr
          38 43 hstem
          76 74 266 75 vstem
          238 -73 callsubr
          139 -832 -102 callsubr
          endchar
        </CharString>
        <CharString name="T">
          26 594 63 hstem
          230 74 vstem
          -21 callgsubr
          endchar
        </CharString>
        <CharString name="Thorn">
          71 154 60 270 61 -61 173 hstemhm
          92 74 288 74 hintmask 11011000
          92 hmoveto
          74 154 122 41 callsubr
          -95 49 -145 hvcurveto
          -122 hlineto
          hintmask 10111000
          112 -74 vlineto
          74 -443 rmoveto
          hintmask 11011000
          270 111 vlineto
          118 59 -31 -99 -97 -57 -43 -120 hvcurveto
          endchar
        </CharString>
        <CharString name="U">
          -19 callgsubr
          -9 callsubr
          321 -12 -97 callgsubr
        </CharString>
        <CharString name="Uacute">
          -19 callgsubr
          -9 callsubr
          303 -69 callsubr
          50 -748 -97 callgsubr
        </CharString>
        <CharString name="Ucircumflex">
          -19 callgsubr
          88 -20 90 43 -9 callsubr
          209 -78 callgsubr
          144 -737 -97 callgsubr
        </CharString>
        <CharString name="Udieresis">
          -19 callgsubr
          81 91 hstemhm
          89 74 11 34 callsubr
          15 71 hintmask 00000000
          hintmask 11111110
          220 -101 callgsubr
          hintmask 11010010
          -101 -730 -97 callgsubr
        </CharString>
        <CharString name="Ugrave">
          -19 callgsubr
          -9 callsubr
          339 -47 callsubr
          129 -826 -97 callgsubr
        </CharString>
        <CharString name="Umacron">
          -19 callgsubr
          100 52 -9 callsubr
          190 -37 callgsubr
          131 -801 -97 callgsubr
        </CharString>
        <CharString name="V">
          2 0 77 580 -20 hstem
          1 507 -43 callsubr
          endchar
        </CharString>
        <CharString name="W">
          275 0 79 479 99 0 -20 hstemhm
          24 733 hintmask 10110000
          166 hmoveto
          87 hlineto
          102 409 rlineto
          hintmask 11010000
          12 52 12 47 10 50 rrcurveto
          4 hlineto
          10 -50 11 -47 11 -52 105 -409 rcurveline
          88 hlineto
          139 657 25 callsubr
          -72 -365 -14 -70 -12 -71 -13 -72 -3 callsubr
          -16 72 -17 71 -16 70 -94 365 rcurveline
          -68 hlineto
          -95 -365 -16 -71 -16 -71 -15 -71 -3 callsubr
          -13 71 -14 71 -13 71 -72 365 rcurveline
          -77 hlineto
          endchar
        </CharString>
        <CharString name="X">
          -2 35 callsubr
          16 474 vstem
          16 hmoveto
          77 hlineto
          100 183 17 33 17 32 19 40 rlinecurve
          4 hlineto
          22 -40 18 -32 17 -33 101 -183 rcurveline
          82 hlineto
          -193 336 180 321 rlineto
          -78 hlineto
          -92 -175 -16 -30 -13 -26 -18 -38 -3 callsubr
          -21 38 -14 26 -17 30 -94 175 rcurveline
          -82 hlineto
          180 -317 rlineto
          endchar
        </CharString>
        <CharString name="Y">
          -39 35 callsubr
          197 74 vstem
          197 hmoveto
          -47 callgsubr
        </CharString>
        <CharString name="Yacute">
          -39 35 callsubr
          197 74 vstem
          216 -69 callsubr
          13 -736 rmoveto
          -47 callgsubr
        </CharString>
        <CharString name="Ydieresis">
          -39 20 callgsubr
          81 91 hstemhm
          87 37 callsubr
          133 -101 callgsubr
          hintmask 11010000
          -138 -718 rmoveto
          -47 callgsubr
        </CharString>
        <CharString name="Z">
          32 0 63 531 63 hstem
          46 449 vstem
          46 hmoveto
          -66 callsubr
          endchar
        </CharString>
        <CharString name="ZWJ">
          23 callsubr
          -150 34 233 34 vstem
          -150 785 rmoveto
          34 73 233 -73 34 109 -301 hlineto
          endchar
        </CharString>
        <CharString name="ZWNJ">
          767 217 hstem
          -104 207 vstem
          -81 767 rmoveto
          81 81 79 -80 24 24 -79 83 79 82 -24 25 -79 -82 -81 84 -23 -27 78 -82 -78 -83 rlineto
          endchar
        </CharString>
        <CharString name="Zcaron">
          32 0 63 531 63 50 43 hstem
          46 449 vstem
          242 -73 callsubr
          -90 -820 rmoveto
          -66 callsubr
          endchar
        </CharString>
        <CharString name="a">
          -32 callsubr
          2 callsubr
          195 -12 -107 callgsubr
          endchar
        </CharString>
        <CharString name="a.sups">
          -82 callgsubr
        </CharString>
        <CharString name="aacute">
          -32 callsubr
          229 -20 2 callsubr
          251 -68 callgsubr
          -18 -622 -107 callgsubr
          endchar
        </CharString>
        <CharString name="abreve">
          -32 callsubr
          74 50 100 -20 hstemhm
          53 72 -10 47 193 72 -51 47 hintmask 00000000
          hintmask 11110101
          269 571 -77 callgsubr
          hintmask 11111010
          -74 -583 -107 callgsubr
          endchar
        </CharString>
        <CharString name="acircumflex">
          -32 callsubr
          188 54 2 callsubr
          150 -87 callsubr
          -115 -141 rlineto
          77 -610 -107 callgsubr
          endchar
        </CharString>
        <CharString name="acute">
          33 24 callgsubr
          215 191 vstem
          252 573 rmoveto
          154 153 -52 48 -139 -164 rlineto
          endchar
        </CharString>
        <CharString name="acutecomb">
          24 callgsubr
          -56 192 vstem
          -18 -68 callgsubr
          endchar
        </CharString>
        <CharString name="acutecomb.cap">
          699 164 hstem
          -50 179 vstem
          -18 -69 callsubr
          endchar
        </CharString>
        <CharString name="adieresis">
          -32 callsubr
          93 93 hstemhm
          53 72 3 93 96 93 -55 72 hintmask 00000000
          hintmask 11101100
          175 -98 callsubr
          hintmask 11110010
          -168 -602 -107 callgsubr
          endchar
        </CharString>
        <CharString name="ae">
          278 -12 60 178 49 163 59 hstem
          60 72 225 68 257 65 vstem
          202 -12 rmoveto
          62 72 33 60 65 hvcurveto
          -48 37 52 -45 82 hhcurveto
          68 46 23 27 42 hvcurveto
          -27 51 rlineto
          -24 -36 -36 -17 -48 hhcurveto
          -87 -67 72 106 -2 hvcurveto
          319 hlineto
          2 12 1 15 16 vvcurveto
          139 -66 89 -118 -67 -57 -42 -66 -37 vhcurveto
          65 -20 -46 43 -74 hhcurveto
          -72 -66 -36 -28 -42 hvcurveto
          29 -50 rlineto
          25 37 52 28 54 hhcurveto
          83 20 -65 -65 hvcurveto
          -203 -23 -94 -52 -107 vvcurveto
          -88 62 -48 80 vhcurveto
          223 287 rmoveto
          99 9 57 64 71 hhcurveto
          76 44 -57 -106 hvcurveto
          -461 -228 rmoveto
          -49 -40 24 58 67 62 41 162 20 hvcurveto
          1 -25 rlineto
          -39 7 -40 12 -27 vhcurveto
          -50 -47 -61 -29 -47 hhcurveto
          endchar
        </CharString>
        <CharString name="agrave">
          -32 callsubr
          229 -20 2 callsubr
          287 -55 callsubr
          62 -738 -107 callgsubr
          endchar
        </CharString>
        <CharString name="alphalatin">
          17 callsubr
          248 -12 rmoveto
          60 55 34 38 37 hvcurveto
          3 hlineto
          -47 5 18 -25 43 hhcurveto
          18 9 3 3 11 hvcurveto
          -3 57 rlineto
          -2 -9 -4 0 -4 hhcurveto
          -12 -8 9 22 hvcurveto
          405 -59 vlineto
          -6 -48 rlineto
          -3 hlineto
          39 -43 -40 21 -55 hhcurveto
          -112 -100 -98 -157 -162 78 -92 121 hvcurveto
          16 62 rmoveto
          -90 -50 73 119 113 65 80 82 41 39 -14 -39 44 hvcurveto
          -263 vlineto
          -46 -43 -41 -23 -47 hhcurveto
          endchar
        </CharString>
        <CharString name="amacron">
          -32 callsubr
          105 52 2 callsubr
          139 -25 callgsubr
          56 -666 -107 callgsubr
          endchar
        </CharString>
        <CharString name="ampersand">
          -96 callgsubr
        </CharString>
        <CharString name="ampersand.lat">
          -96 callgsubr
        </CharString>
        <CharString name="approxequal">
          -15 153 56 30 56 70 56 30 56 hstemhm
          37 418 hintmask 00000000
          hintmask 01111000
          334 365 rmoveto
          -6 callsubr
          -26 -18 -29 hhcurveto
          hintmask 01011000
          -42 callsubr
          hintmask 01111000
          57 43 -86 78 hhcurveto
          hintmask 11011000
          -212 vmoveto
          -6 callsubr
          -26 -18 -29 hhcurveto
          hintmask 01011000
          -42 callsubr
          hintmask 11011000
          57 43 -86 78 hhcurveto
          endchar
        </CharString>
        <CharString name="aring">
          -32 callsubr
          56 34 127 34 hstemhm
          53 72 38 47 118 47 -20 72 hintmask 11111101
          269 553 rmoveto
          hintmask 11111110
          21 callgsubr
          hvcurveto
          hintmask 11111101
          -56 41 -41 65 vhcurveto
          hintmask 11111110
          -36 callsubr
          -74 -599 rmoveto
          hintmask 11111101
          61 55 32 39 47 hvcurveto
          3 hlineto
          6 -59 rlineto
          60 300 hlineto
          117 -47 80 -117 -78 -68 -36 -28 -42 vhcurveto
          29 -50 rlineto
          25 37 52 28 58 hhcurveto
          83 21 -65 -65 hvcurveto
          -209 -23 -93 -52 -106 vvcurveto
          hintmask 11111110
          -89 62 -48 80 vhcurveto
          19 59 rmoveto
          -49 -40 24 58 hvcurveto
          hintmask 11111101
          66 58 42 172 20 vhcurveto
          -142 vlineto
          hintmask 11111110
          -44 -50 -42 -24 -49 hhcurveto
          endchar
        </CharString>
        <CharString name="asciicircum">
          -44 callgsubr
        </CharString>
        <CharString name="asciicircum.lat">
          -44 callgsubr
        </CharString>
        <CharString name="asciitilde">
          -15 259 56 30 56 hstemhm
          37 418 hintmask 10100000
          334 259 rmoveto
          -6 callsubr
          -25 -18 -30 hhcurveto
          hintmask 11100000
          -42 callsubr
          hintmask 10100000
          57 43 -86 78 hhcurveto
          endchar
        </CharString>
        <CharString name="asterisk">
          -54 callsubr
        </CharString>
        <CharString name="asterisk.lat">
          -54 callsubr
        </CharString>
        <CharString name="at">
          -99 callgsubr
        </CharString>
        <CharString name="at.lat">
          -99 callgsubr
        </CharString>
        <CharString name="atilde">
          -32 callsubr
          81 0 callgsubr
          53 72 -27 50 207 72 -37 50 hintmask 0000000000000000
          hintmask 1111010010000000
          342 578 rmoveto
          hintmask 1110110010000000
          -45 callsubr
          hintmask 1111001100000000
          -49 -63 callgsubr
          31 hhcurveto
          hintmask 1111010010000000
          29 callgsubr
          hintmask 1111010100000000
          -147 -590 -107 callgsubr
          endchar
        </CharString>
        <CharString name="b">
          44 -12 -75 callgsubr
          endchar
        </CharString>
        <CharString name="backslash">
          -20 callgsubr
        </CharString>
        <CharString name="backslash.lat">
          -20 callgsubr
        </CharString>
        <CharString name="bar">
          -270 750 -20 hstem
          92 53 vstem
          92 -250 rmoveto
          53 1000 -53 hlineto
          endchar
        </CharString>
        <CharString name="braceleft">
          -86 callsubr
        </CharString>
        <CharString name="braceleft.lat">
          -86 callsubr
        </CharString>
        <CharString name="braceright">
          -85 callgsubr
        </CharString>
        <CharString name="braceright.lat">
          -85 callgsubr
        </CharString>
        <CharString name="bracketleft">
          -26 callgsubr
        </CharString>
        <CharString name="bracketleft.lat">
          -26 callgsubr
        </CharString>
        <CharString name="bracketright">
          -30 callsubr
        </CharString>
        <CharString name="bracketright.lat">
          -30 callsubr
        </CharString>
        <CharString name="breve">
          33 571 50 100 -20 hstem
          116 47 215 47 vstem
          270 571 rmoveto
          106 42 78 72 7 hvcurveto
          -47 7 rlineto
          -52 -8 -33 -55 -67 hhcurveto
          -67 -33 55 52 -7 hvcurveto
          -50 callsubr
          endchar
        </CharString>
        <CharString name="brokenbar">
          -270 -79 664 hstem
          92 53 vstem
          92 585 rmoveto
          -205 vlineto
          -459 53 196 vlineto
          468 vlineto
          endchar
        </CharString>
        <CharString name="bullet">
          -35 callgsubr
        </CharString>
        <CharString name="bullet.lat">
          -35 callgsubr
        </CharString>
        <CharString name="c">
          -53 -14 callgsubr
          hstem
          47 76 vstem
          273 -12 rmoveto
          59 54 24 38 43 hvcurveto
          -72 callsubr
          -161 98 -93 128 hvcurveto
          endchar
        </CharString>
        <CharString name="caron">
          33 574 34 callgsubr
          120 301 vstem
          234 -84 callgsubr
          -31 -30 rlineto
          endchar
        </CharString>
        <CharString name="ccaron">
          -53 -14 callgsubr
          77 34 callgsubr
          47 76 vstem
          236 -84 callgsubr
          -32 -30 rlineto
          152 -726 rmoveto
          59 54 24 38 43 hvcurveto
          -72 callsubr
          -161 98 -93 128 hvcurveto
          endchar
        </CharString>
        <CharString name="ccedilla">
          -53 -224 38 143 -21 53 60 387 61 hstem
          47 76 165 57 vstem
          273 -64 rmoveto
          23 53 50 6 46 22 37 33 rlinecurve
          -72 callsubr
          -150 85 -91 115 -12 hvcurveto
          -37 -77 18 callgsubr
          8 -38 rlineto
          21 callsubr
          endchar
        </CharString>
        <CharString name="cedilla">
          33 39 callsubr
          288 58 hintmask 10110000
          186 -224 rmoveto
          103 5 57 28 56 vvcurveto
          41 -28 19 -45 11 vhcurveto
          hintmask 11010000
          30 67 rlineto
          -49 hlineto
          -43 -91 rlineto
          56 -8 21 -14 -26 vvcurveto
          -29 -25 -16 -85 -5 vhcurveto
          endchar
        </CharString>
        <CharString name="cent">
          -83 callgsubr
        </CharString>
        <CharString name="cent.heb">
          33 endchar
        </CharString>
        <CharString name="cent.lat">
          -83 callgsubr
        </CharString>
        <CharString name="chi">
          -33 -191 688 hstem
          9 471 vstem
          82 -191 rmoveto
          155 294 19 callsubr
          169 -294 70 19 -204 336 173 321 rlineto
          -78 hlineto
          -130 -256 rlineto
          -4 hlineto
          -152 268 -72 -20 190 -314 -194 -342 rlineto
          endchar
        </CharString>
        <CharString name="circledotted">
          80 -12 71 -44 71 11 72 37 72 39 72 10 71 -54 73 hstemhm
          47 69 -41 68 10 68 38 69 -37 69 6 67 -44 68 -13 68 -41 69 hintmask 0000000000000000
          hintmask 0000001000010000
          324 489 rmoveto
          -18 -15 -14 -22 -23 15 -14 18 21 15 14 23 22 -16 14 -20 hvcurveto
          hintmask 0000010001000100
          -137 -19 rmoveto
          -18 -16 -12 -24 -22 16 -13 18 20 14 13 22 24 -15 12 -19 hvcurveto
          235 -122 rmoveto
          22 13 14 23 hvcurveto
          0 4 -1 4 -1 4 1 4 1 4 4 flex1
          24 -16 12 -19 -18 -15 -12 -24 vhcurveto
          0 -4 1 -4 1 -4 -1 -4 -1 -4 -4 flex1
          -23 16 -14 17 vhcurveto
          hintmask 0000100010000000
          -314 41 rmoveto
          -18 -15 -12 -23 -24 15 -13 18 22 13 13 24 23 -14 12 -21 hvcurveto
          hintmask 0001000100000001
          8 -146 rmoveto
          23 -15 12 -21 -17 -16 -12 -23 -23 16 -14 17 22 14 14 23 vhcurveto
          389 35 rmoveto
          -19 -15 -12 -23 -23 15 -14 19 20 15 14 23 23 -17 12 -18 hvcurveto
          hintmask 0010000010000010
          -397 -109 rmoveto
          -18 -15 -13 -23 -22 15 -14 18 22 13 14 22 23 -14 13 -21 hvcurveto
          370 hmoveto
          -18 -16 -13 -23 -22 16 -14 18 21 13 14 22 23 -15 13 -19 hvcurveto
          hintmask 0100000001001000
          -291 -83 rmoveto
          -18 -16 -12 -21 -25 16 -13 18 20 14 13 25 21 -15 12 -19 hvcurveto
          211 hmoveto
          -17 -15 -12 -21 -25 15 -13 17 22 13 13 25 21 -15 12 -20 hvcurveto
          hintmask 1000000000100000
          -105 -27 rmoveto
          -18 -16 -12 -23 -23 16 -13 18 20 15 13 23 23 -15 12 -20 hvcurveto
          endchar
        </CharString>
        <CharString name="circumflex">
          33 685 54 hstem
          120 301 vstem
          151 -87 callsubr
          -114 -141 rlineto
          endchar
        </CharString>
        <CharString name="colon">
          -265 -12 117 249 -11 callsubr
          354 -72 callgsubr
          -366 vmoveto
          -4 callsubr
        </CharString>
        <CharString name="comma">
          -265 -2 107 hstem
          134 56 vstem
          125 105 -38 callgsubr
        </CharString>
        <CharString name="copyright">
          -96 callsubr
        </CharString>
        <CharString name="copyright.lat">
          -96 callsubr
        </CharString>
        <CharString name="currency">
          -15 135 55 279 55 -11 -20 hstemhm
          55 68 246 68 hintmask 10111000
          67 105 rmoveto
          67 69 rlineto
          -25 32 39 -14 41 hhcurveto
          41 40 14 25 31 hvcurveto
          67 -69 40 41 -65 66 rlineto
          23 31 14 40 46 vvcurveto
          47 -14 40 -23 31 vhcurveto
          65 66 rlineto
          hintmask 11011000
          -40 41 -67 -69 rlineto
          25 -31 -40 14 -41 hhcurveto
          -41 -40 -14 -25 -31 hvcurveto
          hintmask 10111000
          -67 69 -39 -41 63 -66 rlineto
          -22 -31 -14 -40 -47 vvcurveto
          -46 14 -40 23 -31 vhcurveto
          -64 -66 rlineto
          218 44 rmoveto
          -67 -56 56 83 hvcurveto
          hintmask 11011000
          82 56 58 67 67 56 -58 -82 vhcurveto
          hintmask 10111000
          -83 -56 -56 -67 vhcurveto
          endchar
        </CharString>
        <CharString name="d">
          14 callsubr
          217 -20 hstem
          49 75 271 -95 callgsubr
          endchar
        </CharString>
        <CharString name="dagger">
          -62 497 59 hstem
          193 59 vstem
          191 -80 rmoveto
          63 hlineto
          -4 579 140 -4 -65 callsubr
          4 rlineto
          endchar
        </CharString>
        <CharString name="dagger.lat">
          -62 497 59 hstem
          193 59 vstem
          191 -80 rmoveto
          63 hlineto
          -4 579 140 -4 -65 callsubr
          4 rlineto
          endchar
        </CharString>
        <CharString name="daggerdbl">
          -77 callsubr
        </CharString>
        <CharString name="daggerdbl.lat">
          -77 callsubr
        </CharString>
        <CharString name="degree">
          -61 callgsubr
        </CharString>
        <CharString name="degree.lat">
          -61 callgsubr
        </CharString>
        <CharString name="dieresis">
          33 590 93 hstem
          129 93 96 93 vstem
          176 590 rmoveto
          27 19 20 26 26 -19 21 -27 -27 -20 -21 -26 -26 20 -20 27 hvcurveto
          189 hmoveto
          26 20 20 26 26 -20 21 -26 -27 -20 -21 -26 -26 20 -20 27 hvcurveto
          endchar
        </CharString>
        <CharString name="divide">
          -15 99 101 102 56 101 101 hstem
          196 100 vstem
          246 459 -2 callgsubr
          -212 -157 rmoveto
          -15 callsubr
          212 -259 -2 callgsubr
          endchar
        </CharString>
        <CharString name="dollar">
          -86 callgsubr
        </CharString>
        <CharString name="dollar.heb">
          33 endchar
        </CharString>
        <CharString name="dollar.lat">
          -86 callgsubr
        </CharString>
        <CharString name="dotaccent">
          33 589 100 hstem
          220 100 vstem
          270 -41 callgsubr
          endchar
        </CharString>
        <CharString name="dotbelowcomb">
          -8 callsubr
          hstem
          -50 100 vstem
          -203 vmoveto
          -104 callgsubr
          endchar
        </CharString>
        <CharString name="dotlessi">
          -265 0 485 18 callsubr
          vstem
          85 hmoveto
          72 485 -72 hlineto
          endchar
        </CharString>
        <CharString name="dotlessj">
          -276 -220 60 hstem
          87 73 vstem
          33 -220 rmoveto
          39 callgsubr
          -1 -548 rlineto
          -13 callgsubr
          -6 16 25 -6 28 hhcurveto
          endchar
        </CharString>
        <CharString name="e">
          -15 -12 40 callgsubr
          72 271 65 vstem
          455 270 -106 callgsubr
          endchar
        </CharString>
        <CharString name="e.sups">
          -74 callsubr
        </CharString>
        <CharString name="eacute">
          -15 -12 -52 callsubr
          229 -20 3 callgsubr
          402 726 rmoveto
          -52 48 -140 -164 38 -37 rlineto
          207 -303 -106 callgsubr
          endchar
        </CharString>
        <CharString name="ebreve">
          -15 -12 -52 callsubr
          74 50 100 -20 hstemhm
          47 72 -7 36 callgsubr
          -30 65 hintmask 0000000000000000
          hintmask 1111101100000000
          266 571 -77 callgsubr
          hintmask 1111110010000000
          189 -301 -106 callgsubr
          endchar
        </CharString>
        <CharString name="ecircumflex">
          -15 -12 -52 callsubr
          188 54 3 callgsubr
          264 685 rmoveto
          4 hlineto
          117 -116 32 29 -115 141 25 callsubr
          -115 -141 32 -29 rlineto
          308 -299 -106 callgsubr
          endchar
        </CharString>
        <CharString name="edieresis">
          -15 -12 -52 callsubr
          93 93 hstemhm
          47 72 6 93 96 93 -17 65 hintmask 00000000
          hintmask 11110110
          172 -98 callsubr
          hintmask 11101001
          95 -320 -106 callgsubr
          endchar
        </CharString>
        <CharString name="egrave">
          -15 -12 -52 callsubr
          229 -20 3 callgsubr
          322 610 rmoveto
          -140 164 -52 -48 154 -153 rlineto
          171 -303 -106 callgsubr
          endchar
        </CharString>
        <CharString name="eight">
          -102 callgsubr
        </CharString>
        <CharString name="eight.heb">
          -102 callgsubr
        </CharString>
        <CharString name="eight.lat">
          -102 callgsubr
        </CharString>
        <CharString name="eight.pnumheb">
          -15 endchar
        </CharString>
        <CharString name="eight.pnumlat">
          -15 endchar
        </CharString>
        <CharString name="ellipsis">
          491 -12 117 hstem
          111 110 224 110 224 110 vstem
          166 -12 -72 callgsubr
          334 hmoveto
          -92 callsubr
          334 hmoveto
          -4 callsubr
        </CharString>
        <CharString name="emacron">
          -15 -12 -52 callsubr
          105 52 3 callgsubr
          396 654 rmoveto
          -260 -52 260 hlineto
          59 -332 -106 callgsubr
          endchar
        </CharString>
        <CharString name="emdash">
          -10 callgsubr
        </CharString>
        <CharString name="emdash.lat">
          -10 callgsubr
        </CharString>
        <CharString name="endash">
          -7 callgsubr
        </CharString>
        <CharString name="endash.lat">
          -7 callgsubr
        </CharString>
        <CharString name="eogonek">
          -15 -205 50 143 40 callgsubr
          73 149 55 66 65 vstem
          357 -205 rmoveto
          24 33 11 15 18 hvcurveto
          -20 37 rlineto
          -9 -12 -12 -4 -17 hhcurveto
          -25 -22 15 33 42 25 40 87 63 hvcurveto
          -27 48 rlineto
          -24 -36 -39 -15 -48 hhcurveto
          -97 -65 71 108 -4 hvcurveto
          332 hlineto
          2 12 1 16 16 vvcurveto
          140 -70 87 -121 -111 -106 -98 -157 -159 103 -95 127 18 17 1 7 18 vhcurveto
          -26 -24 -35 -43 -50 vvcurveto
          -56 39 -28 49 vhcurveto
          -238 484 rmoveto
          101 10 64 58 72 hhcurveto
          78 47 -55 -104 hvcurveto
          endchar
        </CharString>
        <CharString name="eogonek.sups">
          -74 callsubr
        </CharString>
        <CharString name="equal">
          20 callsubr
          34 408 rmoveto
          -15 callsubr
          -268 vmoveto
          -15 callsubr
          endchar
        </CharString>
        <CharString name="estimated">
          293 -12 20 308 18 306 20 hstem
          46 130 450 128 vstem
          400 -12 rmoveto
          114 102 52 80 66 hvcurveto
          -52 hlineto
          -68 -56 -82 -44 -90 hhcurveto
          -86 -78 38 62 -54 hvcurveto
          -4 6 -4 6 8 vvcurveto
          184 vlineto
          2 2 2 2 vhcurveto
          574 8 hlineto
          186 -158 150 -196 -196 -158 -150 -186 -186 158 -150 196 vhcurveto
          -220 346 rmoveto
          -2 -2 2 4 hvcurveto
          180 vlineto
          8 4 8 4 6 vhcurveto
          60 56 76 38 86 hhcurveto
          82 76 -36 -58 56 hvcurveto
          6 -6 4 -8 -8 vvcurveto
          -184 vlineto
          -4 -2 -2 -4 vhcurveto
          endchar
        </CharString>
        <CharString name="eth">
          35 -12 61 339 57 hstem
          55 69 286 71 vstem
          346 605 rmoveto
          129 67 -21 38 -142 -73 -43 36 -47 30 -48 26 rlinecurve
          -34 -47 42 -23 38 -24 35 -28 rlinecurve
          -128 -66 21 -37 142 72 52 -50 38 -63 18 -85 rlinecurve
          46 -35 -50 21 -52 hhcurveto
          -118 -88 -89 -134 -146 102 -88 111 128 85 107 161 158 -56 110 -79 81 hvcurveto
          -76 -556 rmoveto
          -79 -67 69 104 94 52 72 95 46 46 -15 -62 45 hvcurveto
          2 -18 0 -20 -20 vvcurveto
          -119 -45 -85 -95 vhcurveto
          endchar
        </CharString>
        <CharString name="exclam">
          -60 callsubr
        </CharString>
        <CharString name="exclam.lat">
          -60 callsubr
        </CharString>
        <CharString name="exclamdown">
          -225 380 117 hstemhm
          86 110 -85 60 hintmask 00000000
          hintmask 11000000
          141 380 rmoveto
          30 25 23 36 34 -25 24 -30 -30 -25 -24 -34 -36 25 -23 30 hvcurveto
          hintmask 10100000
          -37 -565 rmoveto
          74 hlineto
          -2 87 -10 389 rlineto
          -50 hlineto
          -10 -389 rlineto
          endchar
        </CharString>
        <CharString name="exclamdown.lat">
          -225 endchar
        </CharString>
        <CharString name="f">
          -223 425 60 181 60 hstem
          96 73 vstem
          239 666 rmoveto
          18 19 -4 -8 19 hvcurveto
          16 56 rlineto
          9 -22 -28 7 -28 hhcurveto
          -92 -45 -59 -98 hvcurveto
          -85 vlineto
          -66 -4 rlineto
          -55 66 -425 73 425 105 60 -105 83 vlineto
          65 23 33 47 vhcurveto
          endchar
        </CharString>
        <CharString name="fi">
          19 425 60 104 100 -23 60 hstemhm
          96 73 187 100 -87 72 hintmask 10110100
          -51 callsubr
          hintmask 11011000
          310 120 -33 callgsubr
          hintmask 10110100
          -37 -689 -29 callgsubr
        </CharString>
        <CharString name="five">
          -97 callsubr
        </CharString>
        <CharString name="five.heb">
          -97 callsubr
        </CharString>
        <CharString name="five.lat">
          -97 callsubr
        </CharString>
        <CharString name="five.pnumheb">
          -15 endchar
        </CharString>
        <CharString name="five.pnumlat">
          -15 endchar
        </CharString>
        <CharString name="fl">
          28 -12 61 376 60 181 60 -12 -20 hstemhm
          96 73 200 72 hintmask 11101100
          -51 callsubr
          386 -518 rmoveto
          -2 -10 -4 0 -4 hhcurveto
          -12 -11 10 24 hvcurveto
          hintmask 11011100
          631 -72 -625 vlineto
          -66 24 -35 55 20 13 3 4 11 vhcurveto
          endchar
        </CharString>
        <CharString name="florin">
          -88 callsubr
        </CharString>
        <CharString name="florin.heb">
          33 endchar
        </CharString>
        <CharString name="florin.lat">
          -88 callsubr
        </CharString>
        <CharString name="four">
          -90 callgsubr
        </CharString>
        <CharString name="four.heb">
          -90 callgsubr
        </CharString>
        <CharString name="four.lat">
          -90 callgsubr
        </CharString>
        <CharString name="four.pnumheb">
          -15 endchar
        </CharString>
        <CharString name="four.pnumlat">
          -15 endchar
        </CharString>
        <CharString name="fraction">
          -81 callgsubr
        </CharString>
        <CharString name="fraction.lat">
          -81 callgsubr
        </CharString>
        <CharString name="g">
          -40 callsubr
          -10 callsubr
          hintmask 0000000000000000
          hintmask 1111010001000000
          247 -226 -29 callsubr
          hintmask 1111000110000000
          -82 callsubr
          hintmask 1110101010000000
          -53 callgsubr
          hintmask 1111000110000000
          -41 callsubr
          hintmask 1111010010000000
          13 callsubr
          hintmask 1111010001000000
          14 callgsubr
          hintmask 1111001010000000
          -62 callsubr
          hintmask 1111010001000000
          -80 callgsubr
        </CharString>
        <CharString name="gammalatin">
          -48 35 60 hstemhm
          208 46 hintmask 00000000
          hintmask 11000000
          254 35 rmoveto
          19 hlineto
          174 450 25 callsubr
          -96 -267 -15 -45 -16 -35 -15 -43 -3 callsubr
          -15 43 -16 35 -15 45 -96 267 rcurveline
          -75 hlineto
          177 -450 rlineto
          19 hlineto
          -15 0 -14 1 -13 vhcurveto
          -12 -46 -9 -34 -31 vvcurveto
          -40 10 -29 24 -6 vhcurveto
          3 -8 3 -5 3 3 3 5 4 hflex1
          24 6 10 29 40 vvcurveto
          30 -9 33 -12 45 vhcurveto
          endchar
        </CharString>
        <CharString name="gcaron">
          -40 callsubr
          77 53 87 -20 -10 callsubr
          hintmask 1111011010100000
          222 -84 callgsubr
          -32 -30 rlineto
          hintmask 1111011100010000
          140 -940 -29 callsubr
          hintmask 1111011001100000
          -82 callsubr
          hintmask 1110111010100000
          -53 callgsubr
          hintmask 1111011001100000
          -41 callsubr
          hintmask 1111011100100000
          13 callsubr
          hintmask 1111011100010000
          14 callgsubr
          hintmask 1111011010100000
          -62 callsubr
          hintmask 1111011100010000
          -80 callgsubr
        </CharString>
        <CharString name="gdotaccent">
          -40 callsubr
          92 100 hstemhm
          47 64 -45 70 -61 63 70 100 45 67 -4 72 hintmask 1111010101100000
          258 -41 callgsubr
          hintmask 1111011001010000
          -11 -815 -29 callsubr
          hintmask 1111010011100000
          -82 callsubr
          hintmask 1110110101100000
          -53 callgsubr
          hintmask 1111010011100000
          -41 callsubr
          hintmask 1111011001100000
          13 callsubr
          hintmask 1111011001010000
          14 callgsubr
          hintmask 1111010101100000
          -62 callsubr
          hintmask 1111011001010000
          -80 callgsubr
        </CharString>
        <CharString name="germandbls">
          60 -12 57 619 60 hstemhm
          85 72 112 69 22 71 38 69 hintmask 11110100
          382 -12 rmoveto
          95 61 63 83 hvcurveto
          164 -200 -25 101 72 93 34 101 vvcurveto
          hintmask 11111100
          78 -56 65 -101 -119 -70 -80 -125 vhcurveto
          -519 72 504 vlineto
          107 44 53 72 57 30 -38 -52 vhcurveto
          -86 -91 -30 -92 vvcurveto
          hintmask 11110100
          -140 200 26 -122 vvcurveto
          -44 -30 -41 -59 -39 -33 15 29 -36 vhcurveto
          -30 -51 rlineto
          -31 40 46 -19 54 hhcurveto
          endchar
        </CharString>
        <CharString name="glottalstopreversedsupmod">
          -211 830 46 hstem
          21 56 57 55 vstem
          134 397 rmoveto
          55 214 hlineto
          -78 45 -34 36 55 vvcurveto
          51 33 32 57 43 28 -23 -25 20 vhcurveto
          30 36 rlineto
          29 -26 -39 29 -60 hhcurveto
          -79 -63 -44 -84 -75 47 -42 66 -44 hvcurveto
          endchar
        </CharString>
        <CharString name="grave">
          33 24 callgsubr
          134 192 vstem
          288 -55 callsubr
          endchar
        </CharString>
        <CharString name="gravecomb">
          24 callgsubr
          -136 192 vstem
          18 -55 callsubr
          endchar
        </CharString>
        <CharString name="gravecomb.cap">
          699 164 hstem
          -129 179 vstem
          18 -47 callsubr
          endchar
        </CharString>
        <CharString name="greater">
          -15 135 394 hstem
          384 74 vstem
          34 135 rmoveto
          424 167 rlineto
          60 vlineto
          -424 167 rlineto
          -64 vlineto
          350 -131 rlineto
          -4 vlineto
          -350 -131 rlineto
          endchar
        </CharString>
        <CharString name="greaterequal">
          -15 0 56 hstem
          384 74 vstem
          34 153 rmoveto
          424 154 rlineto
          68 vlineto
          -424 154 rlineto
          -64 vlineto
          215 -77 135 -45 rlineto
          -4 vlineto
          -135 -45 -215 -77 rlineto
          -217 vmoveto
          -15 callsubr
          endchar
        </CharString>
        <CharString name="guillemotleft">
          -85 8 callgsubr
          44 51 103 50 vstem
          335 67 -7 callsubr
          -17 -157 -59 callsubr
          endchar
        </CharString>
        <CharString name="guillemotleft.lat">
          -85 8 callgsubr
          44 51 103 50 vstem
          181 67 -59 callsubr
          291 -157 -7 callsubr
          endchar
        </CharString>
        <CharString name="guillemotright">
          -85 8 callgsubr
          173 50 104 50 vstem
          240 67 -12 callgsubr
          -121 -27 -65 callgsubr
          endchar
        </CharString>
        <CharString name="guillemotright.lat">
          -85 8 callgsubr
          173 50 104 50 vstem
          87 67 -65 callgsubr
          186 -27 -12 callgsubr
          endchar
        </CharString>
        <CharString name="guilsinglleft">
          -239 8 callgsubr
          44 51 vstem
          181 67 -59 callsubr
          endchar
        </CharString>
        <CharString name="guilsinglleft.lat">
          -239 8 callgsubr
          44 51 vstem
          181 67 -59 callsubr
          endchar
        </CharString>
        <CharString name="guilsinglright">
          -239 8 callgsubr
          173 50 vstem
          87 67 -65 callgsubr
          endchar
        </CharString>
        <CharString name="guilsinglright.lat">
          -239 8 callgsubr
          173 50 vstem
          87 67 -65 callgsubr
          endchar
        </CharString>
        <CharString name="h">
          33 433 64 33 callgsubr
          235 73 vstem
          -88 callgsubr
          endchar
        </CharString>
        <CharString name="hbar">
          33 395 64 115 43 -43 140 hstemhm
          85 72 235 73 hintmask 11011000
          317 459 rmoveto
          -66 -50 -37 -46 -46 hvcurveto
          2 102 rlineto
          96 184 43 -184 vlineto
          hintmask 10111000
          97 -72 vlineto
          hintmask 11011000
          -97 vlineto
          -75 -4 rlineto
          -39 75 -574 72 317 vlineto
          52 51 37 26 51 hhcurveto
          68 28 -41 -93 hvcurveto
          -261 73 270 vlineto
          124 -46 65 -102 vhcurveto
          endchar
        </CharString>
        <CharString name="hungarumlaut">
          33 759 -20 hstem
          179 285 vstem
          220 568 rmoveto
          98 164 -53 27 -86 -172 rlineto
          187 -19 -2 callsubr
          endchar
        </CharString>
        <CharString name="hyphen">
          -63 callsubr
        </CharString>
        <CharString name="i">
          -265 589 100 hstemhm
          72 100 -87 72 hintmask 00000000
          hintmask 11000000
          122 -41 callgsubr
          hintmask 10100000
          -37 -589 -29 callgsubr
        </CharString>
        <CharString name="iacute">
          -265 726 35 callgsubr
          vstem
          104 -68 callgsubr
          19 -610 -29 callgsubr
        </CharString>
        <CharString name="icircumflex">
          -265 685 54 18 callsubr
          vstem
          3 -87 callsubr
          -115 -141 rlineto
          114 -598 -29 callgsubr
        </CharString>
        <CharString name="idieresis">
          -265 590 93 hstemhm
          -19 93 11 72 13 93 hintmask 00000000
          hintmask 11110000
          28 -98 callsubr
          hintmask 10100000
          -131 -590 -29 callgsubr
        </CharString>
        <CharString name="igrave">
          -265 726 35 callgsubr
          vstem
          140 -55 callsubr
          99 -726 -29 callgsubr
        </CharString>
        <CharString name="imacron">
          -265 602 52 18 callsubr
          vstem
          -8 -25 callgsubr
          93 -654 -29 callgsubr
        </CharString>
        <CharString name="infinity">
          270 152 70 -52 57 194 70 -41 57 hstemhm
          40 58 581 58 hintmask 00000000
          hintmask 10011100
          568 152 rmoveto
          98 71 74 109 100 -70 72 -98 -86 -62 -60 -63 -47 hvcurveto
          -4 hlineto
          hintmask 01101100
          48 -36 -53 59 -81 hhcurveto
          -91 -69 -64 -102 -86 68 -69 81 84 55 65 40 35 hvcurveto
          4 hlineto
          hintmask 10011100
          -74 60 56 -49 85 hhcurveto
          1 70 rmoveto
          -62 -47 40 77 -58 hvcurveto
          71 50 50 40 60 hhcurveto
          74 43 -50 -68 -60 -41 -50 -69 hvcurveto
          hintmask 01101100
          -373 5 rmoveto
          -54 -44 42 59 58 41 35 55 53 44 -40 -59 44 hvcurveto
          -52 -35 -47 -43 -57 hhcurveto
          endchar
        </CharString>
        <CharString name="integral">
          -183 -158 58 831 58 hstemhm
          122 67 -24 65 hintmask 11010000
          100 -158 rmoveto
          108 22 97 129 hvcurveto
          hintmask 11100000
          145 -41 208 145 vvcurveto
          104 10 61 56 14 12 -1 -3 9 vhcurveto
          9 56 rlineto
          3 -8 -19 3 -18 hhcurveto
          -110 -22 -98 -128 hvcurveto
          hintmask 11010000
          -145 43 -209 -145 vvcurveto
          -105 -11 -59 -57 -14 -12 2 2 -9 vhcurveto
          -9 -55 rlineto
          -4 10 17 -3 20 hhcurveto
          endchar
        </CharString>
        <CharString name="ismall">
          -174 0 30 callsubr
          130 73 vstem
          46 hmoveto
          242 60 -85 365 85 60 -242 -60 84 -365 -84 hlineto
          endchar
        </CharString>
        <CharString name="j">
          -265 -220 60 749 100 hstemhm
          72 100 -85 73 hintmask 00000000
          hintmask 11100000
          122 -41 callgsubr
          hintmask 11010000
          -35 -652 rmoveto
          -13 callgsubr
          -6 16 25 -6 28 hhcurveto
          39 callgsubr
          endchar
        </CharString>
        <CharString name="j.sups">
          -341 251 48 419 -20 85 74 hstemhm
          45 79 -69 56 hintmask 00000000
          hintmask 11110000
          85 783 rmoveto
          22 17 15 22 21 -17 16 -22 -23 -17 -16 -21 -22 17 -15 23 hvcurveto
          hintmask 11101000
          -63 -532 rmoveto
          63 26 41 71 hvcurveto
          355 -56 -359 vlineto
          -39 -7 -21 -32 -13 -7 2 3 -9 vhcurveto
          -12 -45 rlineto
          -5 16 11 -3 20 hhcurveto
          endchar
        </CharString>
        <CharString name="k">
          -20 714 -20 hstem
          85 71 -69 callgsubr
          endchar
        </CharString>
        <CharString name="l">
          -52 callgsubr
        </CharString>
        <CharString name="lefttorightembed">
          23 callsubr
          -129 88 5 callgsubr
          -76 -36 76 hlineto
          -63 -66 rlineto
          -143 66 rmoveto
          88 36 -88 hlineto
          endchar
        </CharString>
        <CharString name="less">
          -15 135 394 hstem
          34 75 vstem
          458 135 rmoveto
          64 vlineto
          -349 131 rlineto
          4 vlineto
          349 131 rlineto
          64 vlineto
          -424 -167 rlineto
          -60 vlineto
          endchar
        </CharString>
        <CharString name="lessequal">
          -15 0 56 hstem
          34 75 vstem
          458 153 rmoveto
          64 vlineto
          -215 77 -134 45 rlineto
          4 vlineto
          134 45 215 77 rlineto
          64 vlineto
          -424 -154 rlineto
          -68 vlineto
          -307 vmoveto
          -15 callsubr
          endchar
        </CharString>
        <CharString name="litre">
          -107 -12 62 619 57 hstem
          107 71 131 64 vstem
          361 94 rmoveto
          -23 -24 -27 -21 -40 hhcurveto
          -50 -42 37 96 hvcurveto
          37 vlineto
          118 105 77 123 127 vvcurveto
          98 -53 53 -74 -79 -60 -60 -153 vhcurveto
          -280 vlineto
          -27 -21 -28 -21 -29 -19 30 -47 rcurveline
          54 37 rlineto
          -114 3 69 -60 81 hhcurveto
          56 43 32 29 32 hvcurveto
          -143 620 rmoveto
          35 26 -26 -70 -98 -51 -93 -80 -84 hvcurveto
          229 vlineto
          98 33 44 37 vhcurveto
          endchar
        </CharString>
        <CharString name="logicalnot">
          -15 302 56 hstem
          399 59 vstem
          399 105 rmoveto
          59 253 -424 -56 365 hlineto
          endchar
        </CharString>
        <CharString name="lozenge">
          5 -10 61 558 61 hstem
          57 398 vstem
          222 -10 rmoveto
          69 hlineto
          164 340 -164 340 rlineto
          -69 hlineto
          -165 -340 rlineto
          197 -279 rmoveto
          -64 135 -67 144 131 279 19 callsubr
          64 -136 68 -143 -132 -279 rlineto
          endchar
        </CharString>
        <CharString name="lslash">
          -251 -12 61 665 -20 hstem
          88 73 vstem
          183 49 rmoveto
          -12 -10 10 24 hvcurveto
          295 vlineto
          81 51 -27 47 -54 -35 rlineto
          273 -73 -311 vlineto
          -87 -54 28 -47 59 38 rlineto
          -251 vlineto
          -66 24 -35 56 20 12 3 4 11 vhcurveto
          -10 56 rlineto
          -2 -9 -4 0 -5 hhcurveto
          endchar
        </CharString>
        <CharString name="m">
          318 433 64 18 callsubr
          222 73 222 73 vstem
          85 hmoveto
          72 355 hlineto
          52 47 42 26 39 hhcurveto
          64 30 -41 -93 hvcurveto
          -299 73 355 vlineto
          52 47 41 26 39 hhcurveto
          65 30 -41 -93 hvcurveto
          -299 73 308 vlineto
          124 -48 65 -99 -58 -51 -38 -56 -52 vhcurveto
          57 -19 -40 37 -75 hhcurveto
          -57 -51 -37 -47 -43 hvcurveto
          10 callsubr
        </CharString>
        <CharString name="macron">
          33 602 52 hstem
          140 260 vstem
          140 -25 callgsubr
          endchar
        </CharString>
        <CharString name="minus">
          -15 302 56 hstem
          34 424 vstem
          34 302 rmoveto
          -15 callsubr
          endchar
        </CharString>
        <CharString name="multiply">
          -15 128 403 hstem
          51 391 vstem
          90 128 rmoveto
          156 162 156 -162 40 41 -156 161 156 160 -40 41 -156 -162 -156 162 -39 -41 156 -160 -156 -161 rlineto
          endchar
        </CharString>
        <CharString name="n">
          36 433 64 18 callsubr
          235 73 vstem
          -78 callsubr
          -47 -47 vhcurveto
          10 callsubr
        </CharString>
        <CharString name="newsheqel">
          -15 endchar
        </CharString>
        <CharString name="newsheqel.heb">
          33 endchar
        </CharString>
        <CharString name="newsheqel.lat">
          -27 endchar
        </CharString>
        <CharString name="nine">
          -98 callgsubr
        </CharString>
        <CharString name="nine.heb">
          -98 callgsubr
        </CharString>
        <CharString name="nine.lat">
          -98 callgsubr
        </CharString>
        <CharString name="nine.pnumheb">
          -15 endchar
        </CharString>
        <CharString name="nine.pnumlat">
          -15 endchar
        </CharString>
        <CharString name="notequal">
          20 callsubr
          62 69 rmoveto
          56 hlineto
          77 127 rlineto
          263 56 -231 hlineto
          94 156 rlineto
          137 56 -105 hlineto
          77 127 rlineto
          -55 hlineto
          -77 -127 rlineto
          -264 -56 231 hlineto
          -94 -156 rlineto
          -137 -56 105 hlineto
          endchar
        </CharString>
        <CharString name="ntilde">
          36 433 64 81 0 callgsubr
          85 72 -37 50 222 73 -53 50 hintmask 00000000
          hintmask 11101001
          364 578 rmoveto
          hintmask 11011001
          -45 callsubr
          hintmask 11100110
          -49 -63 callgsubr
          31 hhcurveto
          hintmask 11101001
          29 callgsubr
          hintmask 11101010
          -279 -578 rmoveto
          -93 callsubr
          -47 -47 vhcurveto
          10 callsubr
        </CharString>
        <CharString name="numbersign">
          -84 callsubr
        </CharString>
        <CharString name="numbersign.heb">
          33 endchar
        </CharString>
        <CharString name="numbersign.lat">
          -84 callsubr
        </CharString>
        <CharString name="o">
          -25 callsubr
          22 callsubr
          270 -12 rmoveto
          -105 callgsubr
          endchar
        </CharString>
        <CharString name="o.sups">
          -61 callsubr
        </CharString>
        <CharString name="oacute">
          6 callgsubr
          252 -68 callgsubr
          56 -622 rmoveto
          -105 callgsubr
          endchar
        </CharString>
        <CharString name="obreve">
          -25 callsubr
          74 50 100 -20 hstemhm
          47 76 -7 36 callgsubr
          -6 75 hintmask 00000000
          hintmask 11110110
          270 571 -77 callgsubr
          hintmask 11111001
          -583 vmoveto
          -105 callgsubr
          endchar
        </CharString>
        <CharString name="ocircumflex">
          -25 callsubr
          188 54 22 callsubr
          151 -87 callsubr
          -115 -141 rlineto
          151 -610 rmoveto
          -105 callgsubr
          endchar
        </CharString>
        <CharString name="odieresis">
          -25 callsubr
          93 93 hstemhm
          47 76 6 93 96 93 7 75 hintmask 00000000
          hintmask 11101100
          176 -98 callsubr
          hintmask 11010010
          -94 -602 rmoveto
          -105 callgsubr
          endchar
        </CharString>
        <CharString name="oe">
          334 -12 61 177 49 161 61 hstem
          47 75 287 68 262 65 vstem
          264 -12 rmoveto
          81 62 43 83 38 hvcurveto
          -78 36 67 -48 78 hhcurveto
          67 50 23 27 41 hvcurveto
          -27 51 rlineto
          -24 -36 -38 -17 -48 hhcurveto
          -87 -68 72 106 -3 hvcurveto
          323 hlineto
          3 12 1 15 16 vvcurveto
          139 -69 89 -118 -73 -63 -49 -79 -37 vhcurveto
          84 -35 -69 44 -75 hhcurveto
          -116 -102 -22 callgsubr
          101 -93 116 hvcurveto
          213 287 rmoveto
          99 9 59 64 70 hhcurveto
          77 47 -57 -106 hvcurveto
          -474 -226 rmoveto
          -83 -60 77 116 115 60 79 83 85 59 -79 -115 -116 -59 -77 -85 hvcurveto
          endchar
        </CharString>
        <CharString name="ogonek">
          33 endchar
        </CharString>
        <CharString name="ograve">
          6 callgsubr
          288 -55 callsubr
          136 -738 rmoveto
          -105 callgsubr
          endchar
        </CharString>
        <CharString name="omacron">
          -25 callsubr
          105 52 22 callsubr
          140 -25 callgsubr
          130 -666 rmoveto
          -105 callgsubr
          endchar
        </CharString>
        <CharString name="one">
          -70 callsubr
        </CharString>
        <CharString name="one.heb">
          -70 callsubr
        </CharString>
        <CharString name="one.lat">
          -70 callsubr
        </CharString>
        <CharString name="one.pnumheb">
          -110 endchar
        </CharString>
        <CharString name="one.pnumlat">
          -144 546 92 hstem
          168 73 vstem
          168 hmoveto
          73 638 -56 hlineto
          -34 -20 -42 -15 -57 -10 rrcurveto
          -47 116 vlineto
          endchar
        </CharString>
        <CharString name="one.sups">
          -141 endchar
        </CharString>
        <CharString name="one.supsheb">
          -93 endchar
        </CharString>
        <CharString name="one.supslat">
          -105 endchar
        </CharString>
        <CharString name="onehalf">
          296 669 -20 hstem
          169 414 vstem
          169 -80 callsubr
          endchar
        </CharString>
        <CharString name="onehalf.heb">
          33 endchar
        </CharString>
        <CharString name="onehalf.lat">
          296 0 49 304 49 99 78 90 -20 hstem
          159 58 460 57 vstem
          169 -80 callsubr
          -373 -480 rmoveto
          58 390 -48 hlineto
          -26 -20 -26 -12 -42 -8 rrcurveto
          -38 84 vlineto
          331 -501 rmoveto
          264 49 -171 hlineto
          87 89 64 62 76 vvcurveto
          83 -52 43 -76 -52 -47 -32 -43 -29 vhcurveto
          35 -32 rlineto
          32 22 30 26 34 hhcurveto
          47 31 -32 -53 -60 -63 -62 -124 -112 hvcurveto
          endchar
        </CharString>
        <CharString name="onequarter">
          282 669 -20 hstem
          186 414 vstem
          186 -80 callsubr
          endchar
        </CharString>
        <CharString name="onequarter.heb">
          33 endchar
        </CharString>
        <CharString name="onequarter.lat">
          282 107 42 182 59 111 78 90 -20 hstem
          159 58 426 53 vstem
          549 9 callsubr
          -383 -480 rmoveto
          390 -48 vlineto
          -26 -20 -26 -12 -42 -8 rrcurveto
          -38 84 -312 vlineto
          595 -40 -39 callsubr
        </CharString>
        <CharString name="ordfeminine">
          -82 callgsubr
        </CharString>
        <CharString name="ordmasculine">
          -61 callsubr
        </CharString>
        <CharString name="oslash">
          33 endchar
        </CharString>
        <CharString name="otilde">
          -25 callsubr
          81 0 callgsubr
          47 76 -24 50 242 50 -23 75 hintmask 0000000000000000
          hintmask 1111010100000000
          343 578 rmoveto
          hintmask 1110110100000000
          -45 callsubr
          hintmask 1111001010000000
          -49 -63 callgsubr
          31 hhcurveto
          hintmask 1111010100000000
          29 callgsubr
          hintmask 1111010010000000
          -73 -590 rmoveto
          -105 callgsubr
          endchar
        </CharString>
        <CharString name="p">
          14 callsubr
          10 callgsubr
          -2 86 rlineto
          -36 46 47 -21 45 hhcurveto
          111 99 97 165 149 -66 98 -126 -57 -55 -33 -37 -45 hvcurveto
          -3 hlineto
          -6 58 rlineto
          -60 hlineto
          196 -435 -23 callgsubr
        </CharString>
        <CharString name="paragraph">
          -50 callgsubr
        </CharString>
        <CharString name="paragraph.lat">
          -50 callgsubr
        </CharString>
        <CharString name="parenleft">
          -62 callgsubr
        </CharString>
        <CharString name="parenleft.lat">
          -62 callgsubr
        </CharString>
        <CharString name="parenright">
          -59 callgsubr
        </CharString>
        <CharString name="parenright.lat">
          -59 callgsubr
        </CharString>
        <CharString name="partialdiff">
          13 -12 61 295 59 205 61 hstem
          39 70 300 71 vstem
          272 669 rmoveto
          -61 -53 -25 -41 -41 hvcurveto
          34 -46 rlineto
          33 32 40 18 42 hhcurveto
          87 57 -66 -176 -12 0 -12 -1 -12 hvcurveto
          45 -41 -55 28 -56 hhcurveto
          -136 -81 -92 -132 -119 85 -72 95 156 105 153 226 209 -83 93 -125 hvcurveto
          -46 -620 rmoveto
          -63 -54 53 82 90 48 70 104 46 49 -21 -56 46 hvcurveto
          -135 -20 -65 -83 -91 hhcurveto
          endchar
        </CharString>
        <CharString name="percent">
          310 669 -20 hstem
          200 414 vstem
          200 -80 callsubr
          endchar
        </CharString>
        <CharString name="percent.heb">
          33 endchar
        </CharString>
        <CharString name="percent.lat">
          313 -12 46 143 46 133 46 143 46 78 -20 hstem
          36 56 182 56 157 56 181 57 vstem
          200 -80 callsubr
          -380 -492 -31 callsubr
          37 -54 -106 -106 -37 -56 -54 hvcurveto
          451 -235 -31 callsubr
          36 -54 -106 -106 -36 -56 -54 hvcurveto
          endchar
        </CharString>
        <CharString name="period">
          -265 -12 -11 callsubr
          -12 rmoveto
          -4 callsubr
        </CharString>
        <CharString name="periodcentered">
          -265 264 -11 callsubr
          264 -38 callsubr
        </CharString>
        <CharString name="periodcentered.lat">
          -265 264 -11 callsubr
          264 -38 callsubr
        </CharString>
        <CharString name="perthousand">
          -81 callgsubr
        </CharString>
        <CharString name="perthousand.heb">
          33 endchar
        </CharString>
        <CharString name="perthousand.lat">
          679 -12 46 322 46 143 46 78 -20 hstem
          66 56 181 57 124 56 181 57 69 56 182 56 vstem
          497 669 rmoveto
          -51 hlineto
          -99 -187 rlineto
          71 -22 -48 38 -64 hhcurveto
          -89 -58 -75 -131 -118 46 -73 73 -14 hvcurveto
          -102 -192 rlineto
          51 hlineto
          102 191 rlineto
          76 12 48 73 121 vvcurveto
          9 0 8 -1 8 vhcurveto
          -237 -25 rmoveto
          106 37 54 54 51 36 -48 -96 3 vhcurveto
          -95 -177 rlineto
          -51 3 -35 55 103 vvcurveto
          509 17 rmoveto
          -16 callgsubr
          -16 callsubr
          hvcurveto
          363 hmoveto
          -16 callgsubr
          -16 callsubr
          hvcurveto
          -363 -368 rmoveto
          -11 callgsubr
          36 -54 -106 -106 -36 -56 -54 hvcurveto
          363 hmoveto
          -11 callgsubr
          37 -54 -106 -106 -37 -56 -54 hvcurveto
          endchar
        </CharString>
        <CharString name="pi">
          71 -12 61 374 62 hstem
          136 68 176 68 vstem
          479 -12 rmoveto
          27 21 5 5 16 hvcurveto
          -10 56 rlineto
          -3 -19 -12 -2 -9 hhcurveto
          -30 -15 14 34 51 1 162 6 113 hvcurveto
          99 62 -462 hlineto
          -69 -5 rlineto
          -57 113 vlineto
          -134 -13 -151 -22 -138 vhcurveto
          74 -4 rlineto
          14 136 15 153 138 vvcurveto
          181 hlineto
          -1 -109 -4 -158 -53 vvcurveto
          -75 28 -40 71 vhcurveto
          endchar
        </CharString>
        <CharString name="plus">
          -15 302 56 hstem
          216 60 vstem
          216 105 rmoveto
          60 197 182 56 -182 197 -60 -197 -182 -56 182 hlineto
          endchar
        </CharString>
        <CharString name="plusminus">
          -15 0 56 249 56 hstem
          216 60 vstem
          216 122 rmoveto
          60 183 182 56 -182 194 -60 -194 -182 -56 182 hlineto
          -182 -305 rmoveto
          -15 callsubr
          endchar
        </CharString>
        <CharString name="popdirectionformat">
          765 229 hstem
          -19 36 vstem
          -19 765 rmoveto
          36 160 hlineto
          62 -64 25 26 -104 107 -104 -107 25 -26 60 63 rlineto
          endchar
        </CharString>
        <CharString name="product">
          161 574 64 hstem
          90 74 339 75 vstem
          90 -120 rmoveto
          74 694 339 -694 75 758 -488 hlineto
          endchar
        </CharString>
        <CharString name="q">
          17 callsubr
          395 -208 rmoveto
          72 693 -58 hlineto
          -7 -46 rlineto
          -3 hlineto
          37 -43 -40 21 -56 hhcurveto
          -112 -99 -98 -157 -162 78 -92 121 59 51 31 39 40 hvcurveto
          -3 -90 rlineto
          -131 82 rmoveto
          -90 -50 73 119 113 65 80 82 41 39 -14 -39 44 hvcurveto
          -263 vlineto
          -46 -43 -41 -23 -47 hhcurveto
          endchar
        </CharString>
        <CharString name="question">
          -75 callsubr
        </CharString>
        <CharString name="question.lat">
          -75 callsubr
        </CharString>
        <CharString name="questiondown">
          -76 callgsubr
        </CharString>
        <CharString name="questiondown.lat">
          -76 callgsubr
        </CharString>
        <CharString name="quotedbl">
          -98 443 248 hstem
          82 76 91.5 -5 callgsubr
          -33 callsubr
          182 -162 rmoveto
          46 hlineto
          14 162 2 86 rlineto
          -78 hlineto
          1 -86 rlineto
          endchar
        </CharString>
        <CharString name="quotedbl.lat">
          -98 endchar
        </CharString>
        <CharString name="quotedblbase">
          -98 16 4 callsubr
          118 49 13 callgsubr
          9 callgsubr
          66 39 36 56 77 vvcurveto
          55 -22 30 -37 vhcurveto
          168 hmoveto
          -34 callsubr
          endchar
        </CharString>
        <CharString name="quotedblbase.lat">
          -98 endchar
        </CharString>
        <CharString name="quotedblleft">
          -98 441 99 123 -20 hstem
          57 50 117 50 vstem
          283 540 rmoveto
          -3 -3 0 -1 -3 hvcurveto
          57 25 33 49 34 vhcurveto
          -22 35 rlineto
          -66 -39 -36 -56 -77 vvcurveto
          -55 22 -30 37 29 20 19 33 30 -24 17 -25 vhcurveto
          -103 123 rmoveto
          -22 35 rlineto
          -65 -39 -36 -56 -77 vvcurveto
          -55 22 -30 36 29 21 19 33 30 -24 17 -26 vhcurveto
          -3 -3 -1 -2 hhcurveto
          56 25 34 48 34 vhcurveto
          endchar
        </CharString>
        <CharString name="quotedblleft.lat">
          -98 endchar
        </CharString>
        <CharString name="quotedblright">
          -98 600 4 callsubr
          118 49 vstem
          294 11 callsubr
          -34 callsubr
          -168 hmoveto
          -85 callsubr
        </CharString>
        <CharString name="quotedblright.lat">
          -98 endchar
        </CharString>
        <CharString name="quoteleft">
          -55 callgsubr
        </CharString>
        <CharString name="quoteleft.lat">
          -55 callgsubr
        </CharString>
        <CharString name="quoteright">
          -265 600 4 callsubr
          vstem
          126 699 rmoveto
          -85 callsubr
        </CharString>
        <CharString name="quoteright.lat">
          -265 600 4 callsubr
          vstem
          126 699 rmoveto
          -85 callsubr
        </CharString>
        <CharString name="quotesinglbase">
          -265 16 4 callsubr
          13 callgsubr
          9 callgsubr
          66 39 36 56 77 vvcurveto
          55 -22 30 -37 vhcurveto
          endchar
        </CharString>
        <CharString name="quotesinglbase.lat">
          -265 16 4 callsubr
          vstem
          126 115 rmoveto
          -85 callsubr
        </CharString>
        <CharString name="quotesingle">
          -265 443 248 hstem
          82 76 -33 callsubr
          endchar
        </CharString>
        <CharString name="quotesingle.lat">
          -265 443 248 hstem
          82 76 -33 callsubr
          endchar
        </CharString>
        <CharString name="r">
          -167 431 66 18 callsubr
          vstem
          85 hmoveto
          72 316 hlineto
          84 34 50 31 41 hhcurveto
          19 11 -3 -5 16 hvcurveto
          14 64 rlineto
          7 -15 -15 3 -20 hhcurveto
          -56 -49 -40 -61 -33 hvcurveto
          -3 hlineto
          -6 89 rlineto
          -60 hlineto
          endchar
        </CharString>
        <CharString name="radical">
          45 -98 83 hstem
          43 513 vstem
          282 -98 rmoveto
          57 hlineto
          217 918 rlineto
          -54 hlineto
          -181 -774 -5 -21 -3 -20 -4 -20 -3 callsubr
          -5 20 -5 20 -6 21 -119 353 rcurveline
          -127 -56 18 -42 71 32 rlineto
          endchar
        </CharString>
        <CharString name="registered">
          -90 callsubr
        </CharString>
        <CharString name="registered.lat">
          -90 callsubr
        </CharString>
        <CharString name="righttoleftembed">
          23 callsubr
          41 88 32 callgsubr
          75 36 -76 38 callsubr
          185 -17 rmoveto
          88 36 -88 hlineto
          endchar
        </CharString>
        <CharString name="ring">
          33 553 34 127 34 hstem
          164 47 118 48 vstem
          270 553 rmoveto
          65 42 41 56 57 -42 41 -65 -64 -42 -41 -57 -56 42 -41 64 hvcurveto
          -36 callsubr
          endchar
        </CharString>
        <CharString name="ringhalfleftmod">
          -342 endchar
        </CharString>
        <CharString name="ringhalfrightmod">
          -342 endchar
        </CharString>
        <CharString name="rsmall">
          -17 196 54 178 57 18 callsubr
          203 73 vstem
          455 hmoveto
          -133 204 rlineto
          62 17 49 44 78 vvcurveto
          105 -77 37 -104 vhcurveto
          -167 -485 72 196 96 hlineto
          121 -196 rlineto
          -217 250 rmoveto
          178 82 vlineto
          75 46 -26 -60 -60 -46 -32 -75 hvcurveto
          endchar
        </CharString>
        <CharString name="rsmallinverted">
          -17 0 57 180 54 hstem
          57 73 203 72 vstem
          333 485 rmoveto
          -194 -96 vlineto
          -121 194 rlineto
          -81 hlineto
          133 -202 rlineto
          -62 -17 -49 -45 -78 vvcurveto
          -105 77 -38 104 vhcurveto
          167 485 hlineto
          -72 -428 rmoveto
          -82 hlineto
          -75 -46 27 60 60 46 33 75 hvcurveto
          82 hlineto
          endchar
        </CharString>
        <CharString name="s">
          33 callsubr
          hstem
          52 71 189 71 vstem
          209 -12 -101 callsubr
          endchar
        </CharString>
        <CharString name="sacute">
          33 callsubr
          229 -20 hstem
          52 71 189 71 vstem
          201 -68 callgsubr
          46 -622 -101 callsubr
          endchar
        </CharString>
        <CharString name="scaron">
          33 callsubr
          77 34 callgsubr
          52 71 189 71 vstem
          183 -84 callgsubr
          -32 -30 rlineto
          141 -726 -101 callsubr
          endchar
        </CharString>
        <CharString name="section">
          -15 endchar
        </CharString>
        <CharString name="section.lat">
          -15 endchar
        </CharString>
        <CharString name="semicolon">
          -265 -2 107 249 117 hstemhm
          66 110 -42 56 hintmask 00000000
          hintmask 11100000
          121 354 -72 callgsubr
          hintmask 11010000
          4 -249 -38 callgsubr
        </CharString>
        <CharString name="seven">
          -76 callsubr
        </CharString>
        <CharString name="seven.heb">
          -76 callsubr
        </CharString>
        <CharString name="seven.lat">
          -76 callsubr
        </CharString>
        <CharString name="seven.pnumheb">
          -16 endchar
        </CharString>
        <CharString name="seven.pnumlat">
          -20 575 63 hstem
          170 75 vstem
          170 hmoveto
          75 hlineto
          11 249 31 149 149 196 rrcurveto
          44 -392 -63 308 vlineto
          -124 -176 -47 -154 -11 -245 rrcurveto
          endchar
        </CharString>
        <CharString name="six">
          -99 callsubr
        </CharString>
        <CharString name="six.heb">
          -99 callsubr
        </CharString>
        <CharString name="six.lat">
          -99 callsubr
        </CharString>
        <CharString name="six.pnumheb">
          -15 endchar
        </CharString>
        <CharString name="six.pnumlat">
          -15 endchar
        </CharString>
        <CharString name="slash">
          -17 callgsubr
        </CharString>
        <CharString name="slash.lat">
          -17 callgsubr
        </CharString>
        <CharString name="space">
          -307 endchar
        </CharString>
        <CharString name="sterling">
          -87 callgsubr
        </CharString>
        <CharString name="sterling.heb">
          33 endchar
        </CharString>
        <CharString name="sterling.lat">
          -87 callgsubr
        </CharString>
        <CharString name="summation">
          -7 -120 63 632 63 hstemhm
          21 93 -82 92 hintmask 00000000
          hintmask 11100000
          21 -120 rmoveto
          477 63 -384 4 hlineto
          229 313 rlineto
          hintmask 11010000
          -219 311 rlineto
          4 345 63 -437 -48 vlineto
          232 -331 rlineto
          hintmask 11100000
          -243 -331 rlineto
          endchar
        </CharString>
        <CharString name="t">
          -176 -12 60 377 60 hstem
          98 73 vstem
          232 -12 -94 callsubr
          endchar
        </CharString>
        <CharString name="theta">
          11 -12 61 616 61 hstem
          61 40 316 40 vstem
          259 -12 rmoveto
          123 75 114 258 237 -75 129 -123 -123 -75 -129 -237 -258 75 -114 123 hvcurveto
          61 vmoveto
          -73 -53 80 231 213 53 92 73 73 53 -92 -213 -231 -53 -80 -73 hvcurveto
          -158 286 rmoveto
          53 316 -53 vlineto
          endchar
        </CharString>
        <CharString name="thorn">
          45 -12 62 385 62 217 -20 10 callgsubr
          -1 84 rlineto
          -35 45 45 -20 47 hhcurveto
          111 99 97 165 149 -67 98 -128 -55 -53 -30 -35 -44 hvcurveto
          1 85 rlineto
          197 -72 vlineto
          196 -664 -23 callgsubr
        </CharString>
        <CharString name="three">
          -103 callgsubr
        </CharString>
        <CharString name="three.heb">
          -103 callgsubr
        </CharString>
        <CharString name="three.lat">
          -103 callgsubr
        </CharString>
        <CharString name="three.pnumheb">
          -15 endchar
        </CharString>
        <CharString name="three.pnumlat">
          -103 callgsubr
        </CharString>
        <CharString name="three.sups">
          -141 endchar
        </CharString>
        <CharString name="three.supsheb">
          -93 endchar
        </CharString>
        <CharString name="three.supslat">
          -105 endchar
        </CharString>
        <CharString name="threequarters">
          296 669 -20 hstem
          221 414 vstem
          221 -80 callsubr
          endchar
        </CharString>
        <CharString name="threequarters.heb">
          33 endchar
        </CharString>
        <CharString name="threequarters.lat">
          296 107 42 28 46 108 59 -22 38 139 46 78 -20 hstemhm
          243 58 -43 58 341 53 hintmask 1001110110000000
          584 9 callsubr
          hintmask 1101110110000000
          -319 -376 rmoveto
          53 -41 33 -45 11 vhcurveto
          hintmask 1001111010000000
          41 18 30 32 47 vvcurveto
          65 -57 39 -67 -52 -40 -26 -38 -32 vhcurveto
          35 -31 rlineto
          28 23 29 21 29 hhcurveto
          45 29 -26 -39 -41 -40 -33 -70 hvcurveto
          -38 vlineto
          hintmask 1101110110000000
          79 46 -25 -47 -46 -37 -27 -44 -41 -36 24 36 -24 hvcurveto
          -39 -30 rlineto
          -43 29 51 -33 63 hhcurveto
          75 61 44 72 hvcurveto
          hintmask 1010110110000000
          452 -144 -39 callsubr
        </CharString>
        <CharString name="tilde">
          33 578 0 callgsubr
          99 50 242 50 hintmask 11011000
          343 578 rmoveto
          hintmask 10111000
          68 27 59 15 callgsubr
          -48 -3 -14 -35 -30 hhcurveto
          hintmask 11011000
          -50 -63 callgsubr
          32 48 25 -86 72 hhcurveto
          endchar
        </CharString>
        <CharString name="tildecomb">
          578 0 callgsubr
          -171 50 242 50 hintmask 11011000
          73 578 rmoveto
          hintmask 10111000
          -45 callsubr
          hintmask 11011000
          -49 -63 callgsubr
          31 29 callgsubr
          endchar
        </CharString>
        <CharString name="tildecomb.cap">
          711 15 callsubr
          -174 50 248 50 hintmask 10011000
          76 711 rmoveto
          -56 callsubr
          hintmask 01111000
          -21 callsubr
          hintmask 10011000
          30 callgsubr
          endchar
        </CharString>
        <CharString name="trademark">
          -81 callsubr
        </CharString>
        <CharString name="trademark.lat">
          -81 callsubr
        </CharString>
        <CharString name="two">
          -95 callsubr
        </CharString>
        <CharString name="two.heb">
          -95 callsubr
        </CharString>
        <CharString name="two.lat">
          -95 callsubr
        </CharString>
        <CharString name="two.pnumheb">
          -9 endchar
        </CharString>
        <CharString name="two.pnumlat">
          -10 0 63 527 60 hstem
          344 72 vstem
          43 hmoveto
          401 63 -187 hlineto
          -33 -39 -3 -2 -35 hvcurveto
          156 165 110 120 122 vvcurveto
          112 -70 73 -117 -80 -57 -36 -60 -54 vhcurveto
          43 -42 rlineto
          44 37 48 34 54 hhcurveto
          85 39 -54 -74 -106 -106 -116 -195 -197 hvcurveto
          endchar
        </CharString>
        <CharString name="two.sups">
          -141 endchar
        </CharString>
        <CharString name="two.supsheb">
          -93 endchar
        </CharString>
        <CharString name="two.supslat">
          -105 endchar
        </CharString>
        <CharString name="u">
          33 -12 63 -9 callgsubr
          225 -12 -100 callgsubr
        </CharString>
        <CharString name="uacute">
          33 -12 63 675 -20 -9 callgsubr
          255 -68 callgsubr
          8 -622 -100 callgsubr
        </CharString>
        <CharString name="ucircumflex">
          33 -12 63 634 54 -9 callgsubr
          154 -87 callsubr
          -115 -141 rlineto
          103 -610 -100 callgsubr
        </CharString>
        <CharString name="udieresis">
          33 -12 63 539 93 hstemhm
          78 72 -18 93 96 93 -31 73 hintmask 00000000
          hintmask 11011000
          179 -98 callsubr
          hintmask 11100100
          -142 -602 -100 callgsubr
        </CharString>
        <CharString name="ugrave">
          33 -12 63 675 -20 -9 callgsubr
          291 -55 callsubr
          88 -738 -100 callgsubr
        </CharString>
        <CharString name="umacron">
          33 -12 63 551 52 -9 callgsubr
          143 -25 callgsubr
          82 -666 -100 callgsubr
        </CharString>
        <CharString name="underscore">
          -7 -124 51 hstem
          12 476 vstem
          12 -124 rmoveto
          476 51 -476 hlineto
          endchar
        </CharString>
        <CharString name="uni00A0">
          -305 endchar
        </CharString>
        <CharString name="uni00AD">
          -63 callsubr
        </CharString>
        <CharString name="uni018F">
          148 -12 62 240 56 261 62 hstem
          59 75 395 74 vstem
          330 669 rmoveto
          -88 -70 -33 -43 -46 hvcurveto
          36 -51 rlineto
          38 40 57 27 66 hhcurveto
          130 70 -92 -169 4 hvcurveto
          -469 hlineto
          -7 -1 -7 -7 vvcurveto
          -204 99 -133 168 168 109 124 218 218 -102 121 -171 vhcurveto
          -4 -619 rmoveto
          -111 -75 89 151 -6 hvcurveto
          394 hlineto
          -155 -11 -74 -85 -117 hhcurveto
          endchar
        </CharString>
        <CharString name="uni0250">
          1 -12 60 389 60 hstem
          77 73 230 71 vstem
          269 -12 rmoveto
          73 65 35 28 40 hvcurveto
          -30 51 rlineto
          -26 -35 -48 -28 -56 hhcurveto
          -102 -26 69 61 hvcurveto
          209 24 92 58 111 vvcurveto
          82 -55 44 -75 -65 -62 -33 -49 -48 vhcurveto
          -2 hlineto
          -7 70 rlineto
          -60 -293 hlineto
          -119 54 -85 138 vhcurveto
          -119 240 rmoveto
          130 vlineto
          56 53 48 23 48 hhcurveto
          44 37 -21 -54 -69 -59 -44 -171 -21 hvcurveto
          endchar
        </CharString>
        <CharString name="uni0254">
          -53 -14 callgsubr
          hstem
          331 75 vstem
          181 -12 rmoveto
          126 99 93 161 163 -101 92 -114 -74 -46 -27 -31 -37 hvcurveto
          38 -48 rlineto
          27 31 31 18 49 hhcurveto
          84 64 -78 -116 -116 -64 -77 -92 -46 -41 22 28 -31 hvcurveto
          -32 -49 rlineto
          -38 43 54 -24 59 hhcurveto
          endchar
        </CharString>
        <CharString name="uni0259">
          -15 -12 59 167 53 171 59 hstem
          37 65 271 72 vstem
          236 -12 rmoveto
          117 92 97 158 161 -90 93 -121 -69 -53 -21 -29 -44 hvcurveto
          27 -52 rlineto
          26 37 40 17 51 hhcurveto
          91 55 -70 -101 4 hvcurveto
          -332 hlineto
          -2 -12 -2 -17 -16 vvcurveto
          -147 79 -87 120 vhcurveto
          -1 59 rmoveto
          -80 -53 55 112 hvcurveto
          271 hlineto
          -106 -9 -51 -61 -78 hhcurveto
          endchar
        </CharString>
        <CharString name="uni025B">
          -71 -12 -52 callsubr
          hstemhm
          51 73 -47 73 hintmask 11110000
          247 -12 rmoveto
          66 48 16 40 55 hvcurveto
          -32 49 rlineto
          -33 -45 -38 -13 -46 hhcurveto
          -78 -53 35 57 56 47 31 84 hvcurveto
          67 53 -53 hlineto
          hintmask 11101000
          -82 -37 33 47 53 45 26 57 43 34 -15 -24 37 hvcurveto
          30 49 rlineto
          30 -42 -46 19 -58 hhcurveto
          -92 -81 -43 -87 -46 30 -43 52 -19 hvcurveto
          -4 vlineto
          hintmask 11110000
          -55 -15 -53 -37 -70 vvcurveto
          -89 86 -56 110 vhcurveto
          endchar
        </CharString>
        <CharString name="uni026B">
          -52 callgsubr
        </CharString>
        <CharString name="uni0283">
          -265 -220 60 828 60 -13 -20 hstemhm
          85 73 hintmask 10110000
          31 -220 rmoveto
          91 36 58 98 hvcurveto
          hintmask 11010000
          634 vlineto
          60 13 38 58 14 13 -5 -4 10 vhcurveto
          hintmask 10110000
          15 56 rlineto
          hintmask 11010000
          7 -15 -20 6 -24 hhcurveto
          -98 -39 -59 -98 hvcurveto
          -634 vlineto
          -13 callgsubr
          hintmask 10110000
          -6 17 24 -6 28 hhcurveto
          endchar
        </CharString>
        <CharString name="uni028E">
          -48 665 61 -10 -20 hstemhm
          12 435 hintmask 10100000
          12 hmoveto
          72 hlineto
          90 277 14 43 14 50 14 44 rlinecurve
          4 hlineto
          16 -45 17 -50 16 -42 103 -277 rcurveline
          75 hlineto
          -195 488 22 67 rlineto
          63 21 36 47 56 hhcurveto
          13 15 -4 -3 10 hvcurveto
          hintmask 01100000
          14 58 rlineto
          hintmask 10100000
          6 -15 -18 4 -22 hhcurveto
          -94 -50 -74 -92 -32 hvcurveto
          endchar
        </CharString>
        <CharString name="uni0292">
          -88 -220 61 292 53.03 238.97 60 hstem
          328 74 vstem
          198 -220 rmoveto
          105 99 78 140 119 -83 84 -133 -17 hvcurveto
          194 262 rlineto
          39 -336 -60 247 vlineto
          -197 -266 30 -43 rlineto
          11 23 12 6 29 hhcurveto
          90 50 -52 -86 -93 -62 -61 -73 -74 -44 30 33 -35 hvcurveto
          -37 -47 rlineto
          -38 41 57 -39 97 hhcurveto
          endchar
        </CharString>
        <CharString name="uni0294">
          -95 665 61 hstem
          149 72 97 74 vstem
          149 hmoveto
          72 291 hlineto
          99 66 72 64 115 vvcurveto
          125 -88 65 -112 -94 -59 -43 -44 -40 vhcurveto
          39 -48 rlineto
          38 34 45 36 71 hhcurveto
          83 47 -51 -79 -88 -53 -56 -116 -66 hvcurveto
          endchar
        </CharString>
        <CharString name="uni0295">
          -74 639 -20 46 61 hstemhm
          29 74 97 73 hintmask 01110000
          200 hmoveto
          73 325 hlineto
          -117 66 -53 56 88 vvcurveto
          79 52 51 89 66 42 -36 -38 31 vhcurveto
          hintmask 11110000
          39 48 rlineto
          hintmask 01110000
          44 -38 -56 43 -89 hhcurveto
          -117 -93 -65 -125 -115 72 -64 99 -66 hvcurveto
          endchar
        </CharString>
        <CharString name="uni02A4">
          371 endchar
        </CharString>
        <CharString name="uni02A6">
          -89 endchar
        </CharString>
        <CharString name="uni02A7">
          -89 -220 60 148 60 377 60 183 60 -13 -20 hstemhm
          98 73 244 72 hintmask 11101110
          360 -220 rmoveto
          92 35 58 98 hvcurveto
          hintmask 11110110
          634 vlineto
          60 14 38 57 14 14 -5 -4 10 vhcurveto
          hintmask 11101110
          14 56 rlineto
          hintmask 11110110
          7 -14 -20 6 -25 hhcurveto
          -98 -38 -59 -98 hvcurveto
          -634 vlineto
          -59 -12 -38 -50 -17 -17 4 4 -13 vhcurveto
          -14 -56 rlineto
          hintmask 11101110
          -6 16 25 -6 27 hhcurveto
          -128 208 -94 callsubr
          endchar
        </CharString>
        <CharString name="uni02B9">
          -265 endchar
        </CharString>
        <CharString name="uni02C8">
          -397 532 194 hstem
          26 57 vstem
          29 532 rmoveto
          51 hlineto
          6 194 rlineto
          -63 hlineto
          endchar
        </CharString>
        <CharString name="uni02D0">
          -265 87 130 27 128 hstemhm
          83.5 75 hintmask 01100000
          82 244 rmoveto
          78 hlineto
          -3 128 25 callsubr
          hintmask 11100000
          -285 vmoveto
          72 hlineto
          3 130 rlineto
          -78 hlineto
          endchar
        </CharString>
        <CharString name="uni0302">
          685 54 hstem
          -151 302 vstem
          -119 -87 callsubr
          -115 -141 rlineto
          endchar
        </CharString>
        <CharString name="uni0302.cap">
          725 -20 90 43 hstem
          -144 288 vstem
          -112 -78 callgsubr
          endchar
        </CharString>
        <CharString name="uni0304">
          602 52 hstem
          -130 260 vstem
          -130 -25 callgsubr
          endchar
        </CharString>
        <CharString name="uni0304.cap">
          737 52 hstem
          -131 262 vstem
          -131 -37 callgsubr
          endchar
        </CharString>
        <CharString name="uni0306">
          571 50 100 -20 hstem
          -154 36 callgsubr
          vstem
          571 vmoveto
          -74 callgsubr
          endchar
        </CharString>
        <CharString name="uni0306.cap">
          707 47 hstem
          -143 45 196 45 vstem
          707 vmoveto
          92 44 60 67 7 hvcurveto
          -45 8 rlineto
          -48 -8 -31 -40 -59 hhcurveto
          -59 -31 40 48 -8 hvcurveto
          -45 -8 rlineto
          -67 7 44 -60 92 hhcurveto
          endchar
        </CharString>
        <CharString name="uni0307">
          589 100 hstem
          -50 100 vstem
          589 vmoveto
          -104 callgsubr
          endchar
        </CharString>
        <CharString name="uni0307.cap">
          716 100 hstem
          -53 106 vstem
          716 vmoveto
          2 callgsubr
          endchar
        </CharString>
        <CharString name="uni0308">
          590 93 hstem
          -141 93 96 93 vstem
          -94 590 rmoveto
          26 20 20 26 27 -20 20 -26 -27 -20 -20 -27 -26 20 -20 27 hvcurveto
          188 hmoveto
          27 20 20 26 27 -20 20 -27 -26 -20 -20 -27 -26 20 -20 26 hvcurveto
          endchar
        </CharString>
        <CharString name="uni0308.cap">
          718 91 hstem
          -147 34 callsubr
          vstem
          -101 -101 callgsubr
          endchar
        </CharString>
        <CharString name="uni030A">
          553 34 127 34 hstem
          -106 47 118 47 vstem
          553 vmoveto
          21 callgsubr
          -56 41 -41 65 hvcurveto
          -36 callsubr
          endchar
        </CharString>
        <CharString name="uni030A.cap">
          699 34 111 34 hstem
          -95 42 105 43 vstem
          699 vmoveto
          53 42 36 53 55 -42 35 -53 -55 -40 -35 -55 -53 40 -36 55 hvcurveto
          34 vmoveto
          -29 -24 19 36 35 24 21 29 28 24 -21 -35 -36 -24 -19 -28 hvcurveto
          endchar
        </CharString>
        <CharString name="uni030B">
          759 -20 hstem
          -92 286 vstem
          -51 568 -2 callsubr
          188 -19 -2 callsubr
          endchar
        </CharString>
        <CharString name="uni030B.cap">
          723 -20 hstem
          -98 298 vstem
          -58 704 31 callsubr
          196 -19 31 callsubr
          endchar
        </CharString>
        <CharString name="uni030C">
          574 34 callgsubr
          -151 302 vstem
          -36 -84 callgsubr
          -32 -30 rlineto
          endchar
        </CharString>
        <CharString name="uni030C.cap">
          707 43 hstem
          -144 288 vstem
          -38 -73 callsubr
          endchar
        </CharString>
        <CharString name="uni031E">
          -142 44 hstem
          -23 46 vstem
          -23 -247 rmoveto
          46 105 71 44 -188 -44 71 hlineto
          endchar
        </CharString>
        <CharString name="uni0327">
          39 callsubr
          18 57 hintmask 10110000
          -84 -224 rmoveto
          21 callsubr
          hintmask 11010000
          29 67 rlineto
          -49 hlineto
          -43 -91 18 callgsubr
          endchar
        </CharString>
        <CharString name="uni032E">
          -231 50 hstem
          -154 36 callgsubr
          vstem
          -231 vmoveto
          106 42 78 72 6 hvcurveto
          -47 8 rlineto
          -53 -7 -33 -55 -67 hhcurveto
          -67 -33 55 53 -7 hvcurveto
          -47 -8 rlineto
          -72 6 42 -78 106 hhcurveto
          endchar
        </CharString>
        <CharString name="uni0331">
          19 callgsubr
          hstem
          -130 260 vstem
          -130 -168 -79 callgsubr
          endchar
        </CharString>
        <CharString name="uni0361">
          665 52 hstem
          -454 908 vstem
          -432 552 rmoveto
          78 127 158 35 147 hhcurveto
          147 158 -35 -78 127 hvcurveto
          22 38 rlineto
          82 -134 -150 45 -170 hhcurveto
          -170 -150 -45 -82 -134 hvcurveto
          endchar
        </CharString>
        <CharString name="uni0394.math">
          73 endchar
        </CharString>
        <CharString name="uni03A9.math">
          167 endchar
        </CharString>
        <CharString name="uni03BC.math">
          50 endchar
        </CharString>
        <CharString name="uni05B0">
          -233 64 32 62 17 callgsubr
          -75 rmoveto
          -92 callgsubr
          -94 vmoveto
          -54 callgsubr
        </CharString>
        <CharString name="uni05B1">
          -233 64 32 62 hstemhm
          34 59 -8 59 -6 59 45 59 hintmask 11101100
          64 -75 rmoveto
          -92 callgsubr
          104 hmoveto
          -92 callgsubr
          104 hmoveto
          -92 callgsubr
          hintmask 11010100
          -157 -94 rmoveto
          -17 -13 -17 -16 -16 13 -15 17 18 11 15 26 callgsubr
          17 -18 hvcurveto
          157 hmoveto
          -54 callgsubr
        </CharString>
        <CharString name="uni05B2">
          -233 64 32 62 -45 35 hstemhm
          34 158 39 59 hintmask 00000000
          hintmask 11011000
          261 -75 rmoveto
          -92 callgsubr
          hintmask 10111000
          -69 -10 25 callgsubr
          158 hlineto
          69 -49 rmoveto
          -54 callgsubr
        </CharString>
        <CharString name="uni05B3">
          -233 64 32 62 -45 35 hstemhm
          96.5 32 102.5 59 hintmask 00000000
          hintmask 11011000
          261 -75 rmoveto
          -92 callgsubr
          hintmask 10111000
          -69 -10 25 callgsubr
          66 hlineto
          -7 -100 rlineto
          39 hlineto
          -7 100 rlineto
          67 hlineto
          69 -49 rmoveto
          -54 callgsubr
        </CharString>
        <CharString name="uni05B4">
          -137 62 17 callgsubr
          -75 rmoveto
          -92 callgsubr
          endchar
        </CharString>
        <CharString name="uni05B5">
          -137 62 hstem
          34 59 48 59 vstem
          64 -75 rmoveto
          -92 callgsubr
          107 hmoveto
          -17 -13 -15 -16 -17 13 -14 17 -68 callsubr
          endchar
        </CharString>
        <CharString name="uni05B6">
          -223 63 23 62 hstemhm
          34 59 -6 59 -5 59 hintmask 01101000
          64 -75 rmoveto
          -92 callgsubr
          107 hmoveto
          -17 -13 -15 -16 -17 13 -14 17 -68 callsubr
          hintmask 11010000
          -54 -85 -6 callgsubr
        </CharString>
        <CharString name="uni05B7">
          -104 35 hstem
          34 158 vstem
          192 -69 25 callgsubr
          158 hlineto
          endchar
        </CharString>
        <CharString name="uni05B8">
          -104 35 hstem
          96.5 32 vstem
          192 -69 25 callgsubr
          66 hlineto
          -7 -100 rlineto
          39 hlineto
          -7 100 rlineto
          67 hlineto
          endchar
        </CharString>
        <CharString name="uni05B9">
          511 63 17 callgsubr
          574 -6 callgsubr
        </CharString>
        <CharString name="uni05BA">
          511 63 17 callgsubr
          511 rmoveto
          -8 callgsubr
          15 -18 -18 -12 -15 4 callgsubr
          hvcurveto
          endchar
        </CharString>
        <CharString name="uni05BB">
          -259 63 -2 63 -2 62 hstemhm
          34 59 7 60 6 60 hintmask 10110100
          64 -75 rmoveto
          -92 callgsubr
          hintmask 01001000
          66 -60 rmoveto
          -17 -13 -15 -17 -16 13 -15 17 18 12 15 16 17 -12 15 -18 hvcurveto
          hintmask 10110100
          67 -61 rmoveto
          -18 -13 -15 -17 -16 13 -15 18 18 11 15 16 17 -60 callgsubr
        </CharString>
        <CharString name="uni05BC">
          258 64 17 callgsubr
          322 -103 callsubr
        </CharString>
        <CharString name="uni05BE">
          -192 7 callsubr
          45 225 vstem
          45 494 rmoveto
          225 61 -225 hlineto
          endchar
        </CharString>
        <CharString name="uni05BF">
          532 39 hstem
          32 189 vstem
          221 571 rmoveto
          -189 -39 189 hlineto
          endchar
        </CharString>
        <CharString name="uni05C1">
          -26 callsubr
        </CharString>
        <CharString name="uni05C2">
          -26 callsubr
        </CharString>
        <CharString name="uni05C7">
          -104 35 hstem
          34 94 vstem
          128 -69 rmoveto
          -94 -35 40 hlineto
          -13 -100 rlineto
          39 hlineto
          -12 100 rlineto
          40 hlineto
          endchar
        </CharString>
        <CharString name="uni05D0">
          53 0 555 hstem
          33 492 -94 callgsubr
          endchar
        </CharString>
        <CharString name="uni05D1">
          19 -1 callsubr
          339 -42 callgsubr
          endchar
        </CharString>
        <CharString name="uni05D2">
          -135 506 -20 hstem
          214 -56 callgsubr
          endchar
        </CharString>
        <CharString name="uni05D3">
          30 7 callsubr
          306 -24 callgsubr
          endchar
        </CharString>
        <CharString name="uni05D4">
          39 7 callsubr
          60 77 266 -43 callgsubr
          endchar
        </CharString>
        <CharString name="uni05D5">
          -283 0 555 hstem
          78 77 vstem
          78 hmoveto
          -17 callsubr
          endchar
        </CharString>
        <CharString name="uni05D6">
          -130 7 callsubr
          138 -24 callsubr
          endchar
        </CharString>
        <CharString name="uni05D7">
          56 7 callsubr
          63 77 278 77 vstem
          327 555 rmoveto
          -264 -26 hlineto
          -529 77 494 170 vlineto
          71 37 -46 -90 hvcurveto
          -358 77 355 vlineto
          135 -63 65 -105 vhcurveto
          endchar
        </CharString>
        <CharString name="uni05D8">
          46 500.5 61.5 -60 -20 hstemhm
          434 76 hintmask 01100000
          5 callsubr
          hintmask 10100000
          27 callgsubr
          hintmask 01100000
          -5 -62 rlineto
          hintmask 10100000
          -18 callgsubr
          endchar
        </CharString>
        <CharString name="uni05D9">
          -283 210 345 hstem
          78 -14 callsubr
          endchar
        </CharString>
        <CharString name="uni05DA">
          -4 7 callsubr
          357 -22 callsubr
          endchar
        </CharString>
        <CharString name="uni05DB">
          -36 -1 callsubr
          340 -53 callsubr
          endchar
        </CharString>
        <CharString name="uni05DC">
          -31 494 61 -61 223 hstemhm
          43 71 hintmask 10100000
          114 555 rmoveto
          hintmask 01100000
          162 -71 vlineto
          hintmask 10100000
          -5 callsubr
          endchar
        </CharString>
        <CharString name="uni05DD">
          73 -1 callsubr
          75 77 283 77 vstem
          344 555 rmoveto
          -192 hlineto
          -77 -555 20 hlineto
          340 hlineto
          77 369 hlineto
          -45 callgsubr
          -192 -494 rmoveto
          433 175 vlineto
          -28 callsubr
          -311 vlineto
          endchar
        </CharString>
        <CharString name="uni05DE">
          27 callsubr
          447.05 63 hstem
          480 -70 callgsubr
          endchar
        </CharString>
        <CharString name="uni05DF">
          -283 -200 755 hstem
          78 77 vstem
          78 -200 rmoveto
          77 638 hlineto
          -46 callgsubr
          endchar
        </CharString>
        <CharString name="uni05E0">
          -139 0 61 445 -20 hstem
          222 -30 callgsubr
          endchar
        </CharString>
        <CharString name="uni05E1">
          58 -10 71 433 61 hstem
          436 -67 callsubr
          endchar
        </CharString>
        <CharString name="uni05E2">
          28 -29 584 hstem
          405 77 vstem
          405 555 rmoveto
          -287 -3 -119 -126 -59 vhcurveto
          -121 465 rlineto
          -77 hlineto
          129 -488 -176 -35 10 -61 167 33 256 60 17 136 1 355 rlinecurve
          endchar
        </CharString>
        <CharString name="uni05E3">
          40 7 callsubr
          61.84 69.9 269.26001 -58 callsubr
          endchar
        </CharString>
        <CharString name="uni05E4">
          34 -1 callsubr
          64.38 68.17 278.45 -67 callgsubr
          endchar
        </CharString>
        <CharString name="uni05E5">
          -41 -200 755 hstem
          46 396 vstem
          442 555 rmoveto
          -73 hlineto
          -135 -340 -113 340 rlineto
          -75 hlineto
          249 -755 rlineto
          76 hlineto
          -106 320 rlineto
          endchar
        </CharString>
        <CharString name="uni05E6">
          10 0 61 hstem
          39 430 -36 callgsubr
          endchar
        </CharString>
        <CharString name="uni05E7">
          42 -1 callsubr
          58 77 273.5 -57 callgsubr
          endchar
        </CharString>
        <CharString name="uni05E8">
          -35 7 callsubr
          326 -18 callsubr
          endchar
        </CharString>
        <CharString name="uni05E9">
          24 callsubr
          hstem
          6 callsubr
          vstem
          575 412 -104 callsubr
          endchar
        </CharString>
        <CharString name="uni05EA">
          98 -14 55 453 61 hstem
          126 76 260 -51 callgsubr
          endchar
        </CharString>
        <CharString name="uni1E06">
          78 19 callgsubr
          116 8 callsubr
          hintmask 11111010
          -4 callgsubr
          hintmask 11111100
          -48 callgsubr
          hintmask 11111010
          26 callsubr
          -115 -227 -79 callgsubr
          endchar
        </CharString>
        <CharString name="uni1E07">
          44 19 callgsubr
          104 -75 callgsubr
          -131 -218 -79 callgsubr
          endchar
        </CharString>
        <CharString name="uni1E0C">
          106 -8 callsubr
          103 61 535 61 11 callgsubr
          87 100 131 -79 callsubr
          56 -264 -32 callgsubr
          endchar
        </CharString>
        <CharString name="uni1E0D">
          45 -8 callsubr
          91 1 callsubr
          217 -20 hstem
          49 75 120 100 51 -95 callgsubr
          30 -253 -32 callgsubr
          endchar
        </CharString>
        <CharString name="uni1E0E">
          106 19 callgsubr
          116 61 535 61 11 callgsubr
          318 -79 callsubr
          -74 -229 -79 callgsubr
          endchar
        </CharString>
        <CharString name="uni1E0F">
          45 19 callgsubr
          104 1 callsubr
          217 -20 hstem
          49 75 271 -95 callgsubr
          -100 -218 -79 callgsubr
          endchar
        </CharString>
        <CharString name="uni1E20">
          -12 callsubr
          68 52 22 callgsubr
          220 -37 callgsubr
          125 -801 -100 callsubr
        </CharString>
        <CharString name="uni1E21">
          -40 callsubr
          105 52 -10 callsubr
          hintmask 1111010101000000
          128 -25 callgsubr
          hintmask 1111011000100000
          119 -880 -29 callsubr
          hintmask 1111010011000000
          -82 callsubr
          hintmask 1110110101000000
          -53 callgsubr
          hintmask 1111010011000000
          -41 callsubr
          hintmask 1111011001000000
          13 callsubr
          hintmask 1111011000100000
          14 callgsubr
          hintmask 1111010101000000
          -62 callsubr
          hintmask 1111011000100000
          -80 callgsubr
        </CharString>
        <CharString name="uni1E24">
          141 -8 callsubr
          417 65 278 -20 11 callgsubr
          107 100 110 74 vstem
          -44 callsubr
          231 -860 -32 callgsubr
          endchar
        </CharString>
        <CharString name="uni1E25">
          33 -8 callsubr
          536 64 33 callgsubr
          79 100 56 73 vstem
          -88 callgsubr
          201 -917 -32 callgsubr
          endchar
        </CharString>
        <CharString name="uni1E2A">
          141 -231 50 495 65 278 -20 hstemhm
          92 74 3 36 callgsubr
          6 74 hintmask 11110010
          -44 callsubr
          hintmask 11101100
          231 -888 -77 callgsubr
          endchar
        </CharString>
        <CharString name="uni1E2B">
          33 -231 50 614 64 217 -20 hstemhm
          85 72 -25 47 213 73 -72 47 hintmask 11110100
          -88 callgsubr
          201 -945 rmoveto
          hintmask 11101010
          -71 callgsubr
          hintmask 11110100
          -50 callsubr
          endchar
        </CharString>
        <CharString name="uni1E32">
          66 -8 callsubr
          760 -20 11 callgsubr
          111 100 -71 callsubr
          235 -860 -32 callgsubr
          endchar
        </CharString>
        <CharString name="uni1E33">
          -20 -8 callsubr
          817 -20 hstem
          85 71 62 100 -69 callgsubr
          183 -917 -32 callgsubr
          endchar
        </CharString>
        <CharString name="uni1E34">
          66 19 callgsubr
          773 -20 11 callgsubr
          -71 callsubr
          105 -825 -79 callgsubr
          endchar
        </CharString>
        <CharString name="uni1E35">
          -20 19 callgsubr
          830 -20 hstem
          85 71 -69 callgsubr
          53 -882 -79 callgsubr
          endchar
        </CharString>
        <CharString name="uni1E62">
          23 -8 callsubr
          91 65 551 65 hstem
          76 74 72 100 94 75 vstem
          271 -12 -102 callsubr
          1 -191 -32 callgsubr
          endchar
        </CharString>
        <CharString name="uni1E63">
          -91 -8 callsubr
          91 57 394 58 hstem
          52 71 47 100 42 71 vstem
          209 -12 -101 callsubr
          11 -191 -32 callgsubr
          endchar
        </CharString>
        <CharString name="uni1E6C">
          26 -8 callsubr
          697 63 hstemhm
          217 100 -87 74 hintmask 01010000
          -21 callgsubr
          hintmask 11100000
          37 -797 -32 callgsubr
          endchar
        </CharString>
        <CharString name="uni1E6D">
          -176 -8 callsubr
          91 60 377 60 hstemhm
          98 73 -16 100 hintmask 11110000
          232 -12 -94 callsubr
          hintmask 11101000
          -27 -191 -32 callgsubr
          endchar
        </CharString>
        <CharString name="uni1E6E">
          26 19 callgsubr
          710 63 hstem
          230 74 vstem
          -21 callgsubr
          -93 -762 -79 callgsubr
          endchar
        </CharString>
        <CharString name="uni1E6F">
          -176 19 callgsubr
          104 60 377 60 hstem
          98 73 vstem
          232 -12 -94 callsubr
          -157 -156 -79 callgsubr
          endchar
        </CharString>
        <CharString name="uni1E7E">
          2 -8 callsubr
          103 77 580 -20 hstem
          205 100 -43 callsubr
          254 -860 -32 callgsubr
          endchar
        </CharString>
        <CharString name="uni1E7F">
          -48 -8 callsubr
          103 60 hstem
          181 100 -27 callsubr
          219 -688 -32 callgsubr
          endchar
        </CharString>
        <CharString name="uni1E92">
          32 -8 callsubr
          103 63 531 63 hstem
          232 100 vstem
          46 hmoveto
          -66 callsubr
          236 -247 -32 callgsubr
          endchar
        </CharString>
        <CharString name="uni1E93">
          -88 -8 callsubr
          103 30 callsubr
          175 100 vstem
          30 hmoveto
          -66 callgsubr
          195 -242 -32 callgsubr
          endchar
        </CharString>
        <CharString name="uni1E94">
          32 19 callgsubr
          116 63 531 63 hstem
          46 449 vstem
          46 hmoveto
          -66 callsubr
          106 -212 -79 callgsubr
          endchar
        </CharString>
        <CharString name="uni1E95">
          -88 19 callgsubr
          116 30 callsubr
          30 364 vstem
          30 hmoveto
          -66 callgsubr
          65 -207 -79 callgsubr
          endchar
        </CharString>
        <CharString name="uni1E96">
          33 19 callgsubr
          549 64 33 callgsubr
          235 73 vstem
          -88 callgsubr
          71 -882 -79 callgsubr
          endchar
        </CharString>
        <CharString name="uni1EA0">
          32 -8 callsubr
          310 59 329 62 hstem
          218 100 vstem
          535 hmoveto
          -224 657 rlineto
          -82 hlineto
          -225 -657 rlineto
          75 hlineto
          67 207 rlineto
          245 hlineto
          66 -207 rlineto
          -292 266 rmoveto
          34 106 25 75 21 71 21 77 rlinecurve
          4 hlineto
          22 -77 22 -71 24 -75 34 -106 rcurveline
          -104 -369 -33 callgsubr
          endchar
        </CharString>
        <CharString name="uni1EA1">
          -6 -8 callsubr
          91 59 389 61 hstem
          53 72 72 100 58 72 vstem
          195 -12 -107 callgsubr
          33 -250 -32 callgsubr
          endchar
        </CharString>
        <CharString name="uni1EB8">
          17 -8 callsubr
          103 32 callsubr
          74 100 vstem
          92 hmoveto
          -91 callsubr
          198 -860 -32 callgsubr
          endchar
        </CharString>
        <CharString name="uni1EB9">
          -15 -8 callsubr
          91 40 callgsubr
          72 87 100 84 65 vstem
          455 270 -106 callgsubr
          -134 -382 -33 callgsubr
          endchar
        </CharString>
        <CharString name="uni1ECC">
          154 -8 callsubr
          91 65 551 65 hstem
          52 77 152 100 151 77 vstem
          331 -12 rmoveto
          -107 callsubr
          -256 vmoveto
          -104 callgsubr
          endchar
        </CharString>
        <CharString name="uni1ECD">
          33 -8 callsubr
          91 0 callsubr
          hstem
          47 76 97 100 98 75 vstem
          270 -12 rmoveto
          -105 callgsubr
          -252 vmoveto
          -104 callgsubr
          endchar
        </CharString>
        <CharString name="uni200E">
          23 callsubr
          -114 258 5 callgsubr
          -191 -36 191 hlineto
          -63 -66 rlineto
          endchar
        </CharString>
        <CharString name="uni200F">
          23 callsubr
          -144 260 32 callgsubr
          192 36 -193 38 callsubr
          endchar
        </CharString>
        <CharString name="uni2010">
          -63 callsubr
        </CharString>
        <CharString name="uni2010.lat">
          -63 callsubr
        </CharString>
        <CharString name="uni202D">
          23 callsubr
          -156 327 vstem
          -31 767 rmoveto
          104 108 -104 109 -26 -27 61 -63 rlineto
          -160 -36 162 hlineto
          -63 -66 rlineto
          123 -25 rmoveto
          105 108 -105 109 -25 -27 82 -82 -82 -83 rlineto
          endchar
        </CharString>
        <CharString name="uni202E">
          895 34 hstem
          -171 328 vstem
          -66 805 rmoveto
          25 26 -80 83 80 81 -25 26 -105 -107 rlineto
          202 -109 rmoveto
          28 26 -63 64 rlineto
          161 34 -161 hlineto
          63 66 -28 26 -102 -107 rlineto
          endchar
        </CharString>
        <CharString name="uni210A">
          49 -220 59 164 61 371 62 hstem
          50 75 272 72 vstem
          259 -220 rmoveto
          134 76 73 118 hvcurveto
          514 -61 vlineto
          -6 -45 rlineto
          -3 hlineto
          36 -41 -40 21 -55 hhcurveto
          -112 -101 -96 -152 -154 79 -92 121 59 52 31 37 37 hvcurveto
          -1 -96 rlineto
          -83 -2 -45 -53 -91 hhcurveto
          -48 -50 14 32 -47 hvcurveto
          -28 -51 rlineto
          -34 50 61 -20 62 hhcurveto
          6 284 rmoveto
          -89 -51 73 112 108 65 78 83 41 39 -14 -39 44 hvcurveto
          -247 vlineto
          -47 -44 -41 -24 -47 hhcurveto
          endchar
        </CharString>
        <CharString name="uni2215">
          -81 callgsubr
        </CharString>
        <CharString name="uni2215.lat">
          -81 callgsubr
        </CharString>
        <CharString name="uni2219">
          -9 267 117 hstem
          190 110 vstem
          245 267 -38 callsubr
        </CharString>
        <CharString name="uniFB2A">
          24 callsubr
          564 64 hstemhm
          6 callsubr
          -65.5 59 hintmask 00000000
          hintmask 11101000
          539 -58 callgsubr
          hintmask 10110000
          36 -210 -104 callsubr
          endchar
        </CharString>
        <CharString name="uniFB2B">
          24 callsubr
          564 64 hstem
          51 59 167.5 28 callgsubr
          vstem
          81 -58 callgsubr
          494 -210 -104 callsubr
          endchar
        </CharString>
        <CharString name="uniFB2C">
          24 callsubr
          189 64 311 64 hstemhm
          277.5 -13 callsubr
          -65.5 59 hintmask 00000000
          hintmask 10110010
          539 -58 callgsubr
          hintmask 10010100
          36 -210 -104 callsubr
          hintmask 11001100
          -203 -165 -57 callsubr
        </CharString>
        <CharString name="uniFB2D">
          24 callsubr
          189 64 311 64 hstemhm
          51 59 167.5 -13 callsubr
          hintmask 10111010
          81 -58 callgsubr
          494 -210 -104 callsubr
          hintmask 11110110
          -203 -165 -57 callsubr
        </CharString>
        <CharString name="uniFB2E">
          53 -94 35 hstem
          204 158 -94 callgsubr
          -79 -59 25 callgsubr
          158 hlineto
          endchar
        </CharString>
        <CharString name="uniFB2F">
          53 -94 35 hstem
          266.5 32 -94 callgsubr
          -79 -59 25 callgsubr
          66 hlineto
          -7 -100 rlineto
          39 hlineto
          -7 100 rlineto
          67 hlineto
          endchar
        </CharString>
        <CharString name="uniFB30">
          53 87 64 hstem
          220 59 -94 callgsubr
          -191 151 -103 callsubr
        </CharString>
        <CharString name="uniFB31">
          19 0 61 204 64 165 61 hstem
          153 59 127 -42 callgsubr
          -275 236 rmoveto
          -35 callsubr
        </CharString>
        <CharString name="uniFB32">
          -135 265 64 177 -20 hstem
          67 59 88 -56 callgsubr
          -156 265 -57 callsubr
        </CharString>
        <CharString name="uniFB33">
          30 -20 callsubr
          145 59 102 -24 callgsubr
          -131 -48 -103 callsubr
        </CharString>
        <CharString name="uniFB34">
          39 -20 callsubr
          60 77 106 59 101 -43 callgsubr
          213 59 -103 callsubr
        </CharString>
        <CharString name="uniFB35">
          -283 265 64 hstem
          -33 59 52 77 vstem
          78 hmoveto
          -17 callsubr
          -81 -109 -103 callsubr
        </CharString>
        <CharString name="uniFB36">
          -130 -20 callsubr
          29 59 50 -24 callsubr
          -79 -48 -103 callsubr
        </CharString>
        <CharString name="uniFB38">
          46 271 64 165.5 61.5 -60 -20 hstemhm
          256 59 119 76 hintmask 10111000
          5 callsubr
          hintmask 11011000
          27 callgsubr
          hintmask 10111000
          -5 -62 rlineto
          hintmask 11011000
          -18 callgsubr
          237 -220 -103 callsubr
        </CharString>
        <CharString name="uniFB39">
          -283 357 64 hstem
          -26 59 45 -14 callsubr
          -74 -17 -103 callsubr
        </CharString>
        <CharString name="uniFB3A">
          -4 -20 callsubr
          154 59 144 -22 callsubr
          -173 -43 -103 callsubr
        </CharString>
        <CharString name="uniFB3B">
          -36 0 61 204 64 165 61 hstem
          150 59 131 -53 callsubr
          135 268 -103 callsubr
        </CharString>
        <CharString name="uniFB3C">
          -31 265 64 165 61 -61 223 hstemhm
          43 71 -14 59 hintmask 01010000
          114 555 rmoveto
          hintmask 00110000
          162 -71 vlineto
          hintmask 01010000
          -5 callsubr
          hintmask 11001000
          -300 -226 -103 callsubr
        </CharString>
        <CharString name="uniFB3E">
          27 callsubr
          214.05 64 169 63 hstem
          300 59 121 -70 callgsubr
          -195 hmoveto
          -35 callsubr
        </CharString>
        <CharString name="uniFB40">
          -139 0 61 204 64 177 -20 hstem
          73 59 90 -30 callgsubr
          55 268 -103 callsubr
        </CharString>
        <CharString name="uniFB41">
          58 -10 71 207 64 162 61 hstem
          254 59 123 -67 callsubr
          99 271 -103 callsubr
        </CharString>
        <CharString name="uniFB43">
          40 -20 callsubr
          61.84 69.9 126.26001 59 84 -58 callsubr
          10 -226 -103 callsubr
        </CharString>
        <CharString name="uniFB44">
          34 0 61 201 64 168 61 hstem
          64.38 68.17 124.45 59 95 -67 callgsubr
          211 265 -103 callsubr
        </CharString>
        <CharString name="uniFB46">
          9 0 61 93 64 hstem
          118 59 -36 callgsubr
          -292 186 rmoveto
          -35 callsubr
        </CharString>
        <CharString name="uniFB47">
          42 0 61 210 64 159 61 hstem
          58 77 110 59 104.5 -57 callgsubr
          217 51 -103 callsubr
        </CharString>
        <CharString name="uniFB48">
          -35 -20 callsubr
          129 60 137 -18 callsubr
          -167 -43 rmoveto
          -17 -13 -16 -16 -17 13 -15 17 18 12 15 17 17 -12 15 -18 hvcurveto
          endchar
        </CharString>
        <CharString name="uniFB49">
          24 callsubr
          189 64 hstemhm
          277.5 -13 callsubr
          hintmask 10101000
          575 412 -104 callsubr
          hintmask 11011000
          -203 -165 -57 callsubr
        </CharString>
        <CharString name="uniFB4A">
          98 -14 55 224 64 165 61 hstem
          126 76 97 59 104 -51 callgsubr
          307 288 -103 callsubr
        </CharString>
        <CharString name="uniFB4B">
          -283 619 63 hstemhm
          61 59 -42 77 hintmask 00000000
          hintmask 11000000
          91 682 rmoveto
          -27 callgsubr
          -15 -89 callsubr
          16 -34 callgsubr
          hvcurveto
          hintmask 10100000
          -13 -682 rmoveto
          -17 callsubr
          endchar
        </CharString>
        <CharString name="upsilonlatin">
          32 -12 61 376 60 hstemhm
          50 74 195 81 15 74 hintmask 11101000
          269 -12 rmoveto
          140 80 108 115 101 -46 71 -43 40 hvcurveto
          2 100 60 vlineto
          hintmask 11111000
          -181 -48 hlineto
          hintmask 11101000
          56 -45 40 -67 -99 vvcurveto
          -95 -50 -82 -96 -95 -50 82 95 99 40 67 56 45 vhcurveto
          48 -181 -60 99 -2 vlineto
          -42 -40 -46 -71 -101 vvcurveto
          -115 80 -108 139 vhcurveto
          endchar
        </CharString>
        <CharString name="v">
          -48 0 60 hstem
          12 435 -27 callsubr
          endchar
        </CharString>
        <CharString name="w">
          203 0 62 348 75 hstem
          24 662 vstem
          161 hmoveto
          85 hlineto
          72 269 14 46 10 46 11 49 rlinecurve
          4 hlineto
          12 -49 9 -44 12 -46 74 -271 rcurveline
          90 hlineto
          132 485 rlineto
          -70 hlineto
          -74 -289 -32 -134 rlineto
          -4 hlineto
          -11 45 -11 43 -12 46 -79 289 rcurveline
          -73 hlineto
          -78 -289 -12 -45 -11 -44 -11 -45 -3 callsubr
          -9 45 -10 43 -10 46 -76 289 rcurveline
          -75 hlineto
          endchar
        </CharString>
        <CharString name="x">
          -71 0 485 hstem
          14 408 vstem
          14 hmoveto
          76 hlineto
          70 118 17 29 16 30 18 28 rlinecurve
          4 hlineto
          18 -28 18 -30 17 -29 75 -118 rcurveline
          79 hlineto
          -159 246 147 239 rlineto
          -76 hlineto
          -63 -111 -15 -27 -15 -27 -15 -26 -3 callsubr
          -17 26 -16 27 -16 27 -68 111 rcurveline
          -79 hlineto
          148 -232 rlineto
          endchar
        </CharString>
        <CharString name="y">
          -48 -212 61 hstem
          12 435 vstem
          86 -212 -91 callgsubr
        </CharString>
        <CharString name="yacute">
          -48 -212 61 877 -20 hstem
          12 435 vstem
          223 -68 callgsubr
          -99 -822 -91 callgsubr
        </CharString>
        <CharString name="ydieresis">
          -48 -212 61 741 93 hstem
          100 93 96 93 vstem
          147 -98 callsubr
          -249 -802 -91 callgsubr
        </CharString>
        <CharString name="yen">
          -73 callgsubr
        </CharString>
        <CharString name="yen.heb">
          33 endchar
        </CharString>
        <CharString name="yen.lat">
          -73 callgsubr
        </CharString>
        <CharString name="z">
          -88 0 30 callsubr
          30 364 vstem
          30 hmoveto
          -66 callgsubr
          endchar
        </CharString>
        <CharString name="zcaron">
          -88 0 60 365 60 89 34 callgsubr
          30 364 vstem
          193 -84 callgsubr
          -32 -30 rlineto
          -48 -714 rmoveto
          -66 callgsubr
          endchar
        </CharString>
        <CharString name="zero">
          -93 callgsubr
        </CharString>
        <CharString name="zero.heb">
          -93 callgsubr
        </CharString>
        <CharString name="zero.lat">
          -93 callgsubr
        </CharString>
        <CharString name="zero.pnumheb">
          8 endchar
        </CharString>
        <CharString name="zero.pnumlat">
          -4 endchar
        </CharString>
        <CharString name="zero.slash">
          -7 endchar
        </CharString>
        <CharString name="zero.slashpnum">
          -7 endchar
        </CharString>
      <CharString index="0">
        rmoveto
        61 55 32 39 47 hvcurveto
        3 hlineto
        6 -59 rlineto
        60 300 hlineto
        117 -47 80 -117 -78 -68 -36 -28 -42 vhcurveto
        29 -50 rlineto
        25 37 52 28 58 hhcurveto
        83 21 -65 -65 hvcurveto
        -209 -23 -93 -52 -106 vvcurveto
        -89 62 -48 80 vhcurveto
        19 59 rmoveto
        -49 -40 24 58 66 58 42 172 20 hvcurveto
        -142 vlineto
        -44 -50 -42 -24 -49 hhcurveto
        return
      </CharString>
      <CharString index="1">
        rmoveto
        140 -70 87 -121 -111 -106 -98 -157 -159 103 -95 127 68 49 23 27 42 vhcurveto
        -27 48 rlineto
        -24 -36 -39 -15 -48 hhcurveto
        -88 -75 61 118 -6 hvcurveto
        335 hlineto
        2 12 1 16 16 vvcurveto
        -336 9 rmoveto
        110 12 68 49 66 hhcurveto
        78 47 -55 -104 hvcurveto
        return
      </CharString>
      <CharString index="2">
        118 105 93 161 161 -105 94 -118 -118 -105 -22 callgsubr
        105 -93 118 hvcurveto
        61 vmoveto
        -87 -60 77 116 115 60 79 87 87 61 -79 -115 -116 -61 -77 -87 hvcurveto
        return
      </CharString>
      <CharString index="3">
        29 21 20 31 29 -21 20 -29 -29 -21 -20 -29 -31 21 -20 29 hvcurveto
        return
      </CharString>
      <CharString index="4">
        -15 -12 61 255 57 229 60 hstemhm
        159 142 44 74 -51 74 hintmask 11110100
        235 -12 rmoveto
        115 92 69 113 88 -63 57 -78 18 28 callsubr
        70 25 48 50 78 vvcurveto
        102 -79 58 -108 -75 -58 -34 -45 -48 vhcurveto
        40 -47 rlineto
        39 37 47 27 55 hhcurveto
        70 45 -41 -64 -69 -48 -55 -138 hvcurveto
        -57 vlineto
        hintmask 11110100
        154 55 -53 -79 -75 -57 -48 -80 -78 -50 37 40 -39 hvcurveto
        -37 -48 rlineto
        -46 42 64 -44 102 hhcurveto
        endchar
      </CharString>
      <CharString index="5">
        -15 -12 55 552 55 hstemhm
        41 66 -34 68 224 64 -48 70 hintmask 11100100
        248 -12 rmoveto
        122 81 75 95 85 -55 44 -56 34 hvcurveto
        4 vlineto
        hintmask 11011000
        39 30 50 58 68 vvcurveto
        98 -68 71 -111 -100 -77 -65 -97 -67 43 -47 47 -33 vhcurveto
        -4 vlineto
        hintmask 11100100
        -60 -32 -62 -58 -84 vvcurveto
        -101 88 -74 119 vhcurveto
        hintmask 11011000
        45 356 rmoveto
        -78 31 -74 34 79 vvcurveto
        64 46 43 62 74 42 -52 -65 -49 -26 -45 -46 -40 vhcurveto
        hintmask 11100100
        -43 -301 rmoveto
        -82 -61 54 72 62 41 49 54 34 hvcurveto
        94 -37 85 -31 -87 vvcurveto
        -67 -53 -49 -78 vhcurveto
        endchar
      </CharString>
      <CharString index="6">
        718 rmoveto
        26 19 18 28 27 -19 18 -26 -27 -19 -18 -27 -28 19 -18 27 hvcurveto
        202 hmoveto
        27 19 18 28 27 -19 18 -27 -26 -19 -18 -27 -28 19 -18 26 hvcurveto
        return
      </CharString>
      <CharString index="7">
        rmoveto
        67 49 36 53 45 hvcurveto
        3 hlineto
        6 -77 rlineto
        61 485 -73 -348 hlineto
        -60 -49 -36 -26 -51 hhcurveto
        -68 -29 42 93 hvcurveto
        299 -72 -308 vlineto
        -124 46 -65 101 vhcurveto
        endchar
      </CharString>
      <CharString index="8">
        332 -153 50 154 51 -44 51 267 52 165 50 hstemhm
        51 55 141 60 183 44.87 200.13 53 hintmask 1101111110000000
        399 -153 rmoveto
        69 63 17 35 57 hvcurveto
        -20 44 rlineto
        -27 -46 -56 -19 -62 hhcurveto
        -172 -126 114 195 234 172 153 179 180 98 -117 -164 -133 -74 -77 -62 -57 -20 39 82 21 hvcurveto
        38 197 rlineto
        -50 hlineto
        -10 -40 rlineto
        -2 hlineto
        33 -19 -27 15 -35 hhcurveto
        -117 -74 -126 -104 hvcurveto
        hintmask 1011111110000000
        -91 53 -49 67 44 44 30 39 33 vhcurveto
        2 hlineto
        hintmask 1101111110000000
        -51 6 42 -25 54 hhcurveto
        89 107 90 174 196 -125 132 -200 -220 -192 -174 -266 -230 153 -126 195 hvcurveto
        hintmask 1011111110000000
        -20 262 rmoveto
        -41 -31 26 67 78 50 96 81 28 19 -11 -32 20 hvcurveto
        -29 -163 rlineto
        -42 -36 -31 -19 -30 hhcurveto
        endchar
      </CharString>
      <CharString index="9">
        -15 -12 61 200 56 287 58 hstem
        40 70 263 70 vstem
        225 650 rmoveto
        -100 -85 -83 -120 -131 70 -67 111 54 57 32 51 41 hvcurveto
        -211 -3 -78 -72 -93 hhcurveto
        -40 -39 19 32 -26 hvcurveto
        -41 -46 rlineto
        -38 34 48 -28 67 hhcurveto
        126 115 97 260 202 -91 103 -127 hvcurveto
        8 -345 rmoveto
        -84 -39 56 86 86 50 59 65 87 50 -72 -127 10 hvcurveto
        -64 -46 -52 -24 -41 hhcurveto
        endchar
      </CharString>
      <CharString index="10">
        rmoveto
        129 104 69 209 hvcurveto
        391 -71 -391 vlineto
        -162 -73 -51 -89 -87 -71 51 162 vhcurveto
        391 -74 -391 vlineto
        -209 103 -69 129 vhcurveto
        endchar
      </CharString>
      <CharString index="11">
        93 -12 59 569 53 hstemhm
        33 71 16 64 148 60 hintmask 11101000
        586 49 rmoveto
        -37 11 -43 23 -44 32 52 68 38 81 25 88 rrcurveto
        -68 hlineto
        -21 -78 -32 -67 -42 -55 -64 54 -63 69 -44 71 rrcurveto
        74 54 75 56 86 vvcurveto
        74 -45 53 -79 vhcurveto
        hintmask 11111000
        -88 -60 -67 -87 -48 17 -53 27 -54 hvcurveto
        hintmask 11101000
        -68 -48 -63 -55 -88 vvcurveto
        -106 82 -75 116 76 61 31 46 50 vhcurveto
        52 -38 51 -26 45 -13 rrcurveto
        hintmask 11111000
        -382 529 rmoveto
        56 32 43 52 46 18 -37 -39 -61 -54 -41 -62 -42 vhcurveto
        -20 42 -12 41 38 vvcurveto
        hintmask 11101000
        -80 -344 rmoveto
        55 39 41 50 40 vhcurveto
        46 -75 64 -72 67 -58 rrcurveto
        -35 -39 -45 -22 -47 hhcurveto
        -75 -60 50 76 hvcurveto
        endchar
      </CharString>
      <CharString index="12">
        72 vstem
        248 -12 rmoveto
        60 52 32 39 38 hvcurveto
        3 hlineto
        6 -59 rlineto
        60 714 -72 -190 hlineto
        3 -84 rlineto
        35 -44 -38 22 -56 hhcurveto
        -112 -99 -98 -157 -162 78 -92 121 hvcurveto
        16 62 rmoveto
        -90 -50 73 119 113 65 80 82 41 39 -14 -39 44 hvcurveto
        -263 vlineto
        -46 -43 -41 -23 -47 hhcurveto
        return
      </CharString>
      <CharString index="13">
        vstem
        525 hmoveto
        -141 208 113 347 rlineto
        -75 hlineto
        -60 -196 -23 -83 -94 139 -89 140 rlineto
        -79 hlineto
        92 -145 -27 -66 -109 -344 rlineto
        74 hlineto
        107 341 227 -341 rlineto
        return
      </CharString>
      <CharString index="14">
        -15 -12 59 544 59 hstem
        45 71 260 71 vstem
        246 -12 rmoveto
        126 75 120 213 214 -75 115 -126 -126 -75 -115 -214 -213 75 -120 126 hvcurveto
        59 vmoveto
        -78 -52 85 189 189 52 81 78 78 52 -81 -189 -189 -52 -85 -78 hvcurveto
        endchar
      </CharString>
      <CharString index="15">
        -39 callgsubr
        -14 18 -68 callsubr
        return
      </CharString>
      <CharString index="16">
        rmoveto
        94 50 74 93 33 hvcurveto
        184 530 rlineto
        -71 hlineto
        -91 -278 -13 -42 -14 -50 -15 -44 -3 callsubr
        -16 44 -17 50 -15 42 -104 278 rcurveline
        -75 hlineto
        196 -488 -12 -37 rlineto
        -64 -21 -36 -47 -56 hhcurveto
        -13 -15 4 4 -10 hvcurveto
        -14 -59 rlineto
        -6 15 18 -4 22 hhcurveto
        endchar
      </CharString>
      <CharString index="17">
        -15 180 58 318 82 hstem
        305 69 vstem
        463 238 rmoveto
        -89 400 -78 hlineto
        -279 -411 rlineto
        -47 288 -180 69 180 89 vlineto
        -368 58 rmoveto
        159 230 18 31 18 27 16 30 rlinecurve
        4 hlineto
        -2 -33 -3 -54 -33 vvcurveto
        -198 vlineto
        endchar
      </CharString>
      <CharString index="18">
        rmoveto
        85 63 35 60 52 hvcurveto
        -41 46 rlineto
        -48 -44 -48 -28 -64 hhcurveto
        -129 -81 108 169 169 84 105 129 57 45 -26 -38 34 hvcurveto
        41 49 rlineto
        41 -37 -62 39 -79 hhcurveto
        -167 -122 -130 -211 -212 121 -128 163 hvcurveto
        endchar
      </CharString>
      <CharString index="19">
        -78 callsubr
        -46 -46 vhcurveto
        2 102 rlineto
        198 -72 vlineto
        return
      </CharString>
      <CharString index="20">
        -15 0 63 224 51 251 61 hstemhm
        111 72 -23 66 hintmask 00000000
        hintmask 11101000
        162 63 rmoveto
        4 vlineto
        42 42 22 45 73 vvcurveto
        21 -2 20 -3 19 vhcurveto
        148 51 hlineto
        hintmask 11110000
        -160 hlineto
        -12 44 -14 41 45 vvcurveto
        71 40 50 74 47 32 -23 -32 26 vhcurveto
        43 42 rlineto
        42 -34 -47 32 -71 hhcurveto
        -109 -73 -69 -111 -45 15 -43 14 -44 hvcurveto
        -20 hlineto
        -67 -3 rlineto
        -48 vlineto
        hintmask 11101000
        100 hlineto
        5 -20 2 -19 -20 vvcurveto
        -76 -36 -70 -70 -38 vhcurveto
        -44 393 63 vlineto
        endchar
      </CharString>
      <CharString index="21">
        -15 -110 159 540 60 -60 159 hstemhm
        79 72 72 55 83 71 hintmask 11011100
        432 162 rmoveto
        218 -281 -45 153 vvcurveto
        60 41 41 63 56 30 -21 -37 38 vhcurveto
        39 44 -35 37 -41 31 -64 6 rlinecurve
        hintmask 10111100
        99 -55 vlineto
        hintmask 11011100
        -100 vlineto
        -86 -12 -58 -63 -89 -196 282 40 -171 vvcurveto
        -65 -40 -43 -76 -63 -52 31 36 -42 vhcurveto
        -34 -50 41 -39 63 -32 65 -6 rlinecurve
        -99 55 100 vlineto
        93 12 61 65 95 vvcurveto
        endchar
      </CharString>
      <CharString index="22">
        -210 -152 42 365 46 365 42 hstemhm
        120 65 -7 85 hintmask 11110000
        28 -152 rmoveto
        42 hlineto
        78 37 29 103 hvcurveto
        73 -8 55 68 vvcurveto
        hintmask 11101000
        39 18 39 68 1 vhcurveto
        46 vlineto
        hintmask 11110000
        -68 1 -18 39 38 69 8 55 73 vvcurveto
        103 -37 29 -78 vhcurveto
        -42 -42 27 hlineto
        56 15 -29 -66 hvcurveto
        -61 -6 -53 -70 vvcurveto
        -63 16 -32 42 -12 vhcurveto
        -4 vlineto
        -42 -12 -16 -34 -61 -70 6 -53 -61 vvcurveto
        -66 -15 -29 -56 vhcurveto
        -27 hlineto
        endchar
      </CharString>
      <CharString index="23">
        574 rmoveto
        72 hlineto
        115 140 -32 30 -117 -117 rlineto
        -4 hlineto
        -117 117 return
      </CharString>
      <CharString index="24">
        -15 73 60 354 61 hstem
        61 73 126 48 vstem
        450 135 rmoveto
        -33 47 -29 -25 -37 -21 -43 -3 rlinecurve
        354 vlineto
        37 -2 31 -16 27 -25 36 46 rcurveline
        -30 29 -42 26 -59 3 rrcurveto
        105 -48 -107 vlineto
        -111 -15 -88 -82 -139 vvcurveto
        -139 82 -84 117 -13 vhcurveto
        -105 48 104 vlineto
        53 3 49 24 40 35 rrcurveto
        -316 175 rmoveto
        92 50 65 76 16 vhcurveto
        -346 vlineto
        -79 15 -47 66 92 vvcurveto
        endchar
      </CharString>
      <CharString index="25">
        -164 389 46 245 46 hstem
        39 55 145 55 vstem
        136 389 rmoveto
        42 34 22 24 27 hvcurveto
        4 hlineto
        7 -38 rlineto
        44 198 hlineto
        82 -32 49 -79 -52 -48 -23 -19 -32 vhcurveto
        21 -39 rlineto
        16 26 41 19 36 hhcurveto
        49 14 -34 -44 1 hvcurveto
        -139 -14 -61 -35 -70 vvcurveto
        -57 39 -37 58 vhcurveto
        17 46 rmoveto
        -37 -22 16 36 39 37 28 108 12 hvcurveto
        -89 vlineto
        -29 -30 -29 -13 -27 hhcurveto
        endchar
      </CharString>
      <CharString index="26">
        -422 669 -20 hstem
        -166 414 vstem
        -166 -80 callsubr
        endchar
      </CharString>
      <CharString index="27">
        12 -378 rmoveto
        -92 -54 35 54 30 16 31 37 26 hvcurveto
        -6 23 23 -2 16 hhcurveto
        89 hlineto
        66 35 -16 -47 -54 -63 -51 -96 hvcurveto
        endchar
      </CharString>
      <CharString index="28">
        rmoveto
        260 52 -260 hlineto
        return
      </CharString>
      <CharString index="29">
        701 rmoveto
        110 94 19 callsubr
        110 -94 32 24 -106 113 rlineto
        -76 hlineto
        -106 -113 rlineto
        return
      </CharString>
      <CharString index="30">
        rmoveto
        -74 callgsubr
        return
      </CharString>
      <CharString index="31">
        -88 -197 61 516 117 hstem
        48 72 49 110 vstem
        224 380 rmoveto
        30 25 23 36 34 -25 24 -30 -30 -25 -24 -34 -36 25 -23 30 hvcurveto
        -11 -577 rmoveto
        71 56 35 46 41 hvcurveto
        -42 38 rlineto
        -36 -31 -42 -22 -45 hhcurveto
        -68 -33 46 55 111 160 57 -21 158 hvcurveto
        -65 hlineto
        17 -143 -163 -55 -133 vvcurveto
        -95 65 -62 100 vhcurveto
        endchar
      </CharString>
      <CharString index="32">
        12 callgsubr
        293 -12 rmoveto
        111 99 97 165 149 -66 98 -126 -56 -55 -31 -39 -45 hvcurveto
        2 89 rlineto
        198 -72 -714 58 vlineto
        7 50 rlineto
        3 hlineto
        -39 43 51 -23 46 hhcurveto
        -12 62 rmoveto
        -33 -46 14 39 -45 hvcurveto
        262 vlineto
        46 49 45 -40 callgsubr
        return
      </CharString>
      <CharString index="33">
        -71 callgsubr
        -50 callsubr
        return
      </CharString>
      <CharString index="34">
        -15 160 44 67 43 324 -20 hstem
        209 73 vstem
        209 hmoveto
        73 160 164 44 -164 67 164 43 -145 hlineto
        167 324 rlineto
        -74 hlineto
        -82 -177 -22 -43 -18 -44 -23 -48 -3 callsubr
        -22 47 -20 44 -20 44 -82 177 rcurveline
        -76 hlineto
        165 -324 rlineto
        -143 -43 162 -67 -162 -44 162 hlineto
        endchar
      </CharString>
      <CharString index="35">
        rmoveto
        -92 callsubr
        return
      </CharString>
      <CharString index="36">
        106 42 78 72 6 hvcurveto
        -47 7 rlineto
        -52 -7 -33 -55 -67 hhcurveto
        -67 -33 55 52 -7 hvcurveto
        return
      </CharString>
      <CharString index="37">
        74 vstem
        554 297 rmoveto
        196 -5 -88 68 -114 hhcurveto
        -70 -65 -41 -85 -28 hvcurveto
        -50 120 rlineto
        -80 hlineto
        77 -166 -74 -389 rlineto
        77 hlineto
        70 384 rlineto
        61 16 38 53 78 hhcurveto
        79 61 -48 -153 4 hvcurveto
        4 -187 -71 -88 -163 37 -8 -61 rcurveline
        202 -44 114 112 -4 231 rrcurveto
        return
      </CharString>
      <CharString index="38">
        vstem
        85 hmoveto
        71 128 hlineto
        95 112 147 -240 rlineto
        79 hlineto
        -184 291 162 194 rlineto
        -81 hlineto
        -215 -265 rlineto
        -3 494 -71 hlineto
        return
      </CharString>
      <CharString index="39">
        573 rmoveto
        154 153 -52 48 -140 -164 rlineto
        return
      </CharString>
      <CharString index="40">
        77 vstem
        76 hmoveto
        177 hlineto
        129 106 67 184 hvcurveto
        56 vlineto
        162 -1 -76 86 -128 hhcurveto
        -175 hlineto
        -38 -166 -21 -110 30 -67 118 -12 rlinecurve
        16 53 -77 15 -14 38 17 77 rlinecurve
        26 111 rlineto
        105 hlineto
        95 46 -65 -120 hvcurveto
        -61 vlineto
        -142 -76 -45 -95 vhcurveto
        -164 hlineto
        return
      </CharString>
      <CharString index="41">
        364 60 -272 hlineto
        263 386 rlineto
        39 -326 -60 234 vlineto
        -263 -386 rlineto
        return
      </CharString>
      <CharString index="42">
        rmoveto
        136 157 rlineto
        56 vlineto
        -136 157 -33 -28 119 -157 -119 -158 rlineto
        return
      </CharString>
      <CharString index="43">
        707 rmoveto
        92 44 60 67 7 hvcurveto
        -45 8 rlineto
        -49 -8 -31 -39 -59 hhcurveto
        -59 -31 39 49 -8 hvcurveto
        -45 -8 rlineto
        -67 8 44 -60 91 hhcurveto
        return
      </CharString>
      <CharString index="44">
        -25 87 -71 hhcurveto
        -69 -26 -59 -74 -4 hvcurveto
        50 -3 rlineto
        49 3 14 33 return
      </CharString>
      <CharString index="45">
        -210 -176 908 hstem
        83 61 vstem
        215 -176 rmoveto
        45 22 rlineto
        -77 127 -39 152 153 vvcurveto
        153 39 152 77 127 vhcurveto
        -45 22 rlineto
        -82 -134 -50 -144 -176 vvcurveto
        -176 50 -144 82 -134 vhcurveto
        endchar
      </CharString>
      <CharString index="46">
        -181 434 42 166 43 hstem
        41 46 153 46 vstem
        163 434 rmoveto
        65 58 48 76 78 -58 49 -65 -65 -57 -49 -78 -76 57 -48 65 hvcurveto
        42 vmoveto
        -45 -31 35 47 49 31 35 45 45 32 -35 -49 -47 -32 -35 -45 hvcurveto
        endchar
      </CharString>
      <CharString index="47">
        -64 callsubr
        endchar
      </CharString>
      <CharString index="48">
        -210 -176 908 hstem
        153 61 vstem
        82 -176 rmoveto
        82 134 50 144 176 vvcurveto
        176 -50 144 -82 134 vhcurveto
        -45 -22 rlineto
        77 -127 39 -152 -153 vvcurveto
        -153 -39 -152 -77 -127 vhcurveto
        endchar
      </CharString>
      <CharString index="49">
        622 rmoveto
        -8 callgsubr
        16 -18 -18 -12 -16 4 callgsubr
        hvcurveto
        return
      </CharString>
      <CharString index="50">
        79.5 vstem
        228 hmoveto
        143 5 99 95 10 199 16 201 rcurveline
        3 55 rlineto
        -443 -61 361 hlineto
        -17 -210 -12 -178 -76 -34 -92 -11 rlinecurve
        -162 -261 rmoveto
        77 552 -66 hlineto
        -11 -68 rlineto
        return
      </CharString>
      <CharString index="51">
        77 vstem
        327 hmoveto
        -36 208 rlineto
        188 vlineto
        92 -26 52 -80 13 vhcurveto
        -84 13 -10 -60 64 -10 rlineto
        48 -8 11 -30 -63 vvcurveto
        -183 vlineto
        -39 -83 -57 -48 -85 -33 29 -62 rcurveline
        78 27 50 49 38 74 25 -136 rcurveline
        return
      </CharString>
      <CharString index="52">
        -265 441 99 123 -20 hstem
        57 50 vstem
        115 540 rmoveto
        -3 -3 -1 -2 hhcurveto
        56 25 34 48 34 vhcurveto
        -22 35 rlineto
        -65 -39 -36 -56 -77 vvcurveto
        -55 22 -30 36 29 21 19 33 30 -24 17 -26 vhcurveto
        endchar
      </CharString>
      <CharString index="53">
        -18 -12 -17 -16 -16 -83 callsubr
        26 callgsubr
        17 -18 hvcurveto
        endchar
      </CharString>
      <CharString index="54">
        6 -17 -24 6 -26 hhcurveto
        -98 -81 -68 -105 -58 30 -47 32 -25 hvcurveto
        -4 vlineto
        return
      </CharString>
      <CharString index="55">
        -257 -12 61 665 35 callgsubr
        vstem
        164 -12 rmoveto
        20 13 3 4 11 hvcurveto
        -10 56 rlineto
        -2 -10 -4 0 -4 hhcurveto
        -12 -11 10 24 hvcurveto
        631 -72 -625 vlineto
        -66 24 -35 55 vhcurveto
        endchar
      </CharString>
      <CharString index="56">
        77 vstem
        30 -14 rmoveto
        121 11 51 54 118 vvcurveto
        325 152 vlineto
        -28 callsubr
        -372 77 369 vlineto
        -45 callgsubr
        -245 -394 hlineto
        -74 -23 -39 -81 -7 vhcurveto
        return
      </CharString>
      <CharString index="57">
        41 35 callsubr
        41 283 54 74 vstem
        292 231 rmoveto
        32 426 -44 hlineto
        -137 -102 -57 -155 -150 106 -64 145 hvcurveto
        86 -311 rmoveto
        74 737 -74 hlineto
        endchar
      </CharString>
      <CharString index="58">
        0 -37 callsubr
        return
      </CharString>
      <CharString index="59">
        63 20 35 57 65 vvcurveto
        114 -91 47 -133 vhcurveto
        -190 hlineto
        74 -282 rmoveto
        223 105 vlineto
        107 55 -30 -81 -69 -48 -43 -118 hvcurveto
        -101 -316 rmoveto
        259 119 vlineto
        return
      </CharString>
      <CharString index="60">
        74 258 hlineto
        198 399 rlineto
        -77 hlineto
        -88 -191 -21 -48 -23 -46 -23 -48 -3 callsubr
        -24 48 -20 46 -22 48 -88 191 rcurveline
        -79 hlineto
        197 -399 rlineto
        endchar
      </CharString>
      <CharString index="61">
        -14 117 rlineto
        -76 hlineto
        13 -117 rlineto
        return
      </CharString>
      <CharString index="62">
        136 -68 50 -100 vhcurveto
        return
      </CharString>
      <CharString index="63">
        -15 601 69 hstem
        61 370 vstem
        61 285 rmoveto
        65 hlineto
        69 183 49 133 19 callsubr
        119 -316 rlineto
        64 hlineto
        -152 385 rlineto
        -66 hlineto
        endchar
      </CharString>
      <CharString index="64">
        77 vstem
        403 hmoveto
        77 369 hlineto
        -45 callgsubr
        -251 -61 234 hlineto
        -28 callsubr
        -343 -372 rmoveto
        77 337 -66 hlineto
        -11 -67 rlineto
        return
      </CharString>
      <CharString index="65">
        77 vstem
        416 61 rmoveto
        308 vlineto
        -45 callgsubr
        -197 -61 180 hlineto
        -28 callsubr
        -311 -288 -61 288 vlineto
        148 61 hlineto
        return
      </CharString>
      <CharString index="66">
        589 -32 callgsubr
        return
      </CharString>
      <CharString index="67">
        24 43 hhcurveto
        96 38 -76 -110 -123 -62 -76 -85 hvcurveto
        return
      </CharString>
      <CharString index="68">
        -18 -12 -15 -16 -17 12 return
      </CharString>
      <CharString index="69">
        rmoveto
        -30 -27 -20 -33 -35 26 -19 30 3 4 0 1 3 hvcurveto
        -1 -54 -33 -43 -53 -24 19 -44 rcurveline
        75 33 49 65 83 vvcurveto
        56 -25 34 -40 vhcurveto
        endchar
      </CharString>
      <CharString index="70">
        737 rmoveto
        262 52 -262 hlineto
        return
      </CharString>
      <CharString index="71">
        vstem
        323 246 rmoveto
        138 309 rlineto
        -78 hlineto
        -102 -239 -142 239 rlineto
        -80 hlineto
        295 -494 rlineto
        -315 -61 351 hlineto
        79 hlineto
        return
      </CharString>
      <CharString index="72">
        -209 145 236 hstem
        40 218 vstem
        149 145 rmoveto
        58 51 48 70 71 -51 47 -58 -57 -52 -47 -71 -70 52 -48 57 hvcurveto
        endchar
      </CharString>
      <CharString index="73">
        -11 15 -18 return
      </CharString>
      <CharString index="74">
        rmoveto
        -29 -21 -20 -29 -31 21 -20 29 29 21 20 31 29 -21 20 -29 hvcurveto
        return
      </CharString>
      <CharString index="75">
        rmoveto
        -104 callgsubr
        return
      </CharString>
      <CharString index="76">
        17 16 -64 callsubr
        return
      </CharString>
      <CharString index="77">
        77 vstem
        48 hmoveto
        251 396 hlineto
        92 -45 52 -79 13 vhcurveto
        -87 13 -11 -60 67 -10 rlineto
        49 -8 29 -26 -67 vvcurveto
        -334 -174 vlineto
        return
      </CharString>
      <CharString index="78">
        rmoveto
        72 485 -72 hlineto
        endchar
      </CharString>
      <CharString index="79">
        17 -11 15 29 callsubr
        -17 12 -15 18 return
      </CharString>
      <CharString index="80">
        -18 -12 -16 return
      </CharString>
      <CharString index="81">
        -210 -152 42 776 42 hstem
        95 55 vstem
        95 -152 rmoveto
        174 42 -119 776 119 42 -174 hlineto
        endchar
      </CharString>
      <CharString index="82">
        602 -79 callgsubr
        return
      </CharString>
      <CharString index="83">
        77 vstem
        306 -23 callsubr
        75 61 -428 -61 278 hlineto
        -18 -27 -9 -40 -50 vvcurveto
        return
      </CharString>
      <CharString index="84">
        rmoveto
        -33 -44 14 39 -47 hvcurveto
        262 vlineto
        46 50 44 7 callgsubr
      </CharString>
      <CharString index="85">
        -94 -161 -161 return
      </CharString>
      <CharString index="86">
        230 hmoveto
        74 594 201 63 -477 -63 202 hlineto
        return
      </CharString>
      <CharString index="87">
        -155 -160 870 hstem
        12 330 vstem
        288 -160 rmoveto
        54 hlineto
        -276 870 rlineto
        -54 hlineto
        endchar
      </CharString>
      <CharString index="88">
        136 -12 65 604 -20 return
      </CharString>
      <CharString index="89">
        50 -3 rlineto
        88 -6 40 -56 -80 vvcurveto
        -25 vlineto
        7 -188 -119 -69 -138 -14 -58 494 rcurveline
        -77 hlineto
        return
      </CharString>
      <CharString index="90">
        -155 -160 870 hstem
        10 331 vstem
        10 -160 rmoveto
        54 hlineto
        277 870 rlineto
        -54 hlineto
        endchar
      </CharString>
      <CharString index="91">
        -89 -58 -75 -131 -133 58 -75 89 return
      </CharString>
      <CharString index="92">
        16 callgsubr
        52 77 return
      </CharString>
      <CharString index="93">
        -12 0 callsubr
        return
      </CharString>
      <CharString index="94">
        -59 -11 -38 -50 -18 -17 4 4 -12 vhcurveto
        -15 -56 rlineto
        return
      </CharString>
      <CharString index="95">
        rmoveto
        137 157 rlineto
        56 vlineto
        -137 157 -32 -28 119 -157 -119 -158 rlineto
        return
      </CharString>
      <CharString index="96">
        -54 -37 56 106 106 37 54 54 54 return
      </CharString>
      <CharString index="97">
        293 225 52 hstem
        41 718 vstem
        41 225 rmoveto
        718 52 -718 hlineto
        endchar
      </CharString>
      <CharString index="98">
        hstem
        78 72 233 73 vstem
        return
      </CharString>
      <CharString index="99">
        18 11 16 26 callgsubr
        return
      </CharString>
      <CharString index="100">
        -27 225 52 hstem
        41 398 vstem
        41 225 rmoveto
        398 52 -398 hlineto
        endchar
      </CharString>
      <CharString index="101">
        rmoveto
        -18 -12 -15 -16 -89 callsubr
        16 -60 callgsubr
      </CharString>
      <CharString index="102">
        76.5 return
      </CharString>
      <CharString index="103">
        92 hmoveto
        205 hlineto
        147 100 64 128 90 -55 52 -81 16 hvcurveto
        4 vlineto
        return
      </CharString>
      <CharString index="104">
        36 callsubr
        hlineto
        endchar
      </CharString>
      <CharString index="105">
        rmoveto
        28 22 21 30 29 -22 21 -28 -28 -22 -21 -29 -30 22 -21 28 hvcurveto
        return
      </CharString>
      <CharString index="106">
        rmoveto
        -3 callgsubr
      </CharString>
      <CharString index="107">
        53 33 54 -4 -20 hstemhm
        return
      </CharString>
      <CharString index="108">
        62 217 63 return
      </CharString>
      <CharString index="109">
        29 24 20 31 29 -24 20 -29 -29 -24 -20 -29 -31 24 -20 29 hvcurveto
        return
      </CharString>
      <CharString index="110">
        hstem
        47 72 271 65 vstem
        return
      </CharString>
      <CharString index="111">
        -16 -16 12 -16 18 return
      </CharString>
      <CharString index="112">
        vstem
        39 767 rmoveto
        105 108 -105 109 -25 -27 63 -63 rlineto
        return
      </CharString>
      <CharString index="113">
        -25 callsubr
        229 -20 22 callsubr
        return
      </CharString>
      <CharString index="114">
        -40 callgsubr
        endchar
      </CharString>
      <CharString index="115">
        67 370 hstem
        return
      </CharString>
      <CharString index="116">
        3 3 0 1 3 hvcurveto
        -57 -25 -33 -49 -34 vhcurveto
        22 -35 rlineto
        return
      </CharString>
      <CharString index="117">
        18 callsubr
        271 75 vstem
        85 -208 rmoveto
        72 167 hlineto
        return
      </CharString>
      <CharString index="118">
        hstem
        92 74 return
      </CharString>
      <CharString index="119">
        1 callsubr
        33 callgsubr
        271 75 vstem
        return
      </CharString>
      <CharString index="120">
        vstem
        126 115 38 callgsubr
        return
      </CharString>
      <CharString index="121">
        -83 80 -48 120 vhcurveto
        return
      </CharString>
      <CharString index="122">
        73 3 hvcurveto
        -50 4 rlineto
        return
      </CharString>
      <CharString index="123">
        -49 callsubr
        hstem
        return
      </CharString>
      <CharString index="124">
        hstem
        34 59 vstem
        64 return
      </CharString>
      <CharString index="125">
        rlineto
        57 -8 21 -14 -26 vvcurveto
        -29 -26 -16 -84 -5 vhcurveto
        return
      </CharString>
      <CharString index="126">
        -168 52 return
      </CharString>
      <CharString index="127">
        657 -20 return
      </CharString>
      <CharString index="128">
        65 41 41 56 57 -41 41 -65 -65 -41 -41 -57 return
      </CharString>
      <CharString index="129">
        hstem
        52 77 349 68 vstem
        return
      </CharString>
      <CharString index="130">
        18 11 15 17 return
      </CharString>
      <CharString index="131">
        726 -20 hstem
        return
      </CharString>
      <CharString index="132">
        rmoveto
        -158 -35 return
      </CharString>
      <CharString index="133">
        16 16 -11 return
      </CharString>
      <CharString index="134">
        -4 126 -75 60 -113 7 -56 4 rcurveline
        return
      </CharString>
      <CharString index="135">
        74 146.5 -5 callgsubr
        return
      </CharString>
      <CharString index="136">
        49 25 -86 72 hhcurveto
        return
      </CharString>
      <CharString index="137">
        49 25 -73 76 hhcurveto
        return
      </CharString>
      <CharString index="138">
        hintmask 10111000
        121 -74 vlineto
        hintmask 11011000
        -121 return
      </CharString>
      <CharString index="139">
        vstem
        -39 768 rmoveto
        25 24 -62 66 rlineto
        return
      </CharString>
      <CharString index="140">
        217 35 callgsubr
        return
      </CharString>
      <CharString index="141">
        53 87 -20 hstem
        return
      </CharString>
      <CharString index="142">
        -20 18 callsubr
        return
      </CharString>
      <CharString index="143">
        47 214 47 return
      </CharString>
      <CharString index="144">
        252 62 return
      </CharString>
      <CharString index="145">
        rmoveto
        -29 -20 -19 -33 -30 24 -17 25 return
      </CharString>
      <CharString index="146">
        91 36 58 98 hvcurveto
        549 -72 vlineto
        return
      </CharString>
      <CharString index="147">
        -52 callsubr
        hstem
        47 return
      </CharString>
      <CharString index="148">
        252 235 62 -235 217 return
      </CharString>
</ttFont>
